<?xml version="1.0" encoding="UTF-8"?>
<svg width="686px" height="156px" viewBox="0 0 686 156" version="1.1" xmlns="http://www.w3.org/2000/svg" xmlns:xlink="http://www.w3.org/1999/xlink">
    <title>salable qty</title>
    <defs>
        <path d="M12,1 C18.0751322,1 23,5.92486775 23,12 C23,18.0751322 18.0751322,23 12,23 C5.92486775,23 1,18.0751322 1,12 C1,5.92486775 5.92486775,1 12,1 Z M12,3 C7.02943725,3 3,7.02943725 3,12 C3,16.9705627 7.02943725,21 12,21 C16.9705627,21 21,16.9705627 21,12 C21,7.02943725 16.9705627,3 12,3 Z M16,11 C16.5522847,11 17,11.4477153 17,12 C17,12.5522847 16.5522847,13 16,13 L16,13 L8,13 C7.44771525,13 7,12.5522847 7,12 C7,11.4477153 7.44771525,11 8,11 L8,11 Z" id="path-1"></path>
        <path d="M11,0 C17.0751322,0 22,4.92486775 22,11 C22,17.0751322 17.0751322,22 11,22 C4.92486775,22 0,17.0751322 0,11 C0,4.92486775 4.92486775,0 11,0 Z M11,2 C6.02943725,2 2,6.02943725 2,11 C2,15.9705627 6.02943725,20 11,20 C15.9705627,20 20,15.9705627 20,11 C20,6.02943725 15.9705627,2 11,2 Z M15,12 C15.5522847,12 16,12.4477153 16,13 C16,13.5522847 15.5522847,14 15,14 L15,14 L7,14 C6.44771525,14 6,13.5522847 6,13 C6,12.4477153 6.44771525,12 7,12 L7,12 Z M15,8 C15.5522847,8 16,8.44771525 16,9 C16,9.55228475 15.5522847,10 15,10 L15,10 L7,10 C6.44771525,10 6,9.55228475 6,9 C6,8.44771525 6.44771525,8 7,8 L7,8 Z" id="path-3"></path>
        <path d="M12,1 C18.0751322,1 23,5.92486775 23,12 C23,18.0751322 18.0751322,23 12,23 C5.92486775,23 1,18.0751322 1,12 C1,5.92486775 5.92486775,1 12,1 Z M12,3 C7.02943725,3 3,7.02943725 3,12 C3,16.9705627 7.02943725,21 12,21 C16.9705627,21 21,16.9705627 21,12 C21,7.02943725 16.9705627,3 12,3 Z M16,11 C16.5522847,11 17,11.4477153 17,12 C17,12.5522847 16.5522847,13 16,13 L16,13 L8,13 C7.44771525,13 7,12.5522847 7,12 C7,11.4477153 7.44771525,11 8,11 L8,11 Z" id="path-5"></path>
        <path d="M17.820498,0.412898279 L28.7295528,5.68267934 C30.1197571,6.35009055 30.9991761,7.72021919 31,9.22071903 L31,21.7766717 C30.9991761,23.2764725 30.1197571,24.6466011 28.7325715,25.3125586 L17.8239071,30.582151 C16.6715674,31.1392515 15.3148953,31.1392515 14.1629461,30.5823397 L3.2501246,25.310732 C1.86125001,24.6346236 0.989308874,23.2561374 1,21.7627982 L1,9.22001994 C1.00092295,7.72021919 1.88034195,6.35009055 3.26752753,5.68413307 L14.179601,0.412898279 C15.3263457,-0.13763276 16.6737533,-0.13763276 17.820498,0.412898279 Z M3.727,9.718 L3.72729651,21.7719666 C3.72372199,22.2728025 4.01436904,22.7322979 4.47356063,22.9558408 L14.636,27.864 L14.636,14.988 L3.727,9.718 Z M28.272,9.718 L17.363,14.988 L17.363,27.858 L27.5159208,22.9543871 C27.9793222,22.7319167 28.2724619,22.2752071 28.2727365,21.7759726 L28.272,9.718 Z M15.3962519,2.7710697 L5.419,7.59 L16.0000495,12.7013647 L26.58,7.59 L16.6056138,2.77192309 C16.2236371,2.58901321 15.7750677,2.5892117 15.3962519,2.7710697 Z" id="path-7"></path>
        <path d="M17.820498,0.412898279 L28.7295528,5.68267934 C30.1197571,6.35009055 30.9991761,7.72021919 31,9.22071903 L31,21.7766717 C30.9991761,23.2764725 30.1197571,24.6466011 28.7325715,25.3125586 L17.8239071,30.582151 C16.6715674,31.1392515 15.3148953,31.1392515 14.1629461,30.5823397 L3.2501246,25.310732 C1.86125001,24.6346236 0.989308874,23.2561374 1,21.7627982 L1,9.22001994 C1.00092295,7.72021919 1.88034195,6.35009055 3.26752753,5.68413307 L14.179601,0.412898279 C15.3263457,-0.13763276 16.6737533,-0.13763276 17.820498,0.412898279 Z M3.727,9.718 L3.72729651,21.7719666 C3.72372199,22.2728025 4.01436904,22.7322979 4.47356063,22.9558408 L14.636,27.864 L14.636,14.988 L3.727,9.718 Z M28.272,9.718 L17.363,14.988 L17.363,27.858 L27.5159208,22.9543871 C27.9793222,22.7319167 28.2724619,22.2752071 28.2727365,21.7759726 L28.272,9.718 Z M15.3962519,2.7710697 L5.419,7.59 L16.0000495,12.7013647 L26.58,7.59 L16.6056138,2.77192309 C16.2236371,2.58901321 15.7750677,2.5892117 15.3962519,2.7710697 Z" id="path-9"></path>
        <path d="M17.820498,0.412898279 L28.7295528,5.68267934 C30.1197571,6.35009055 30.9991761,7.72021919 31,9.22071903 L31,21.7766717 C30.9991761,23.2764725 30.1197571,24.6466011 28.7325715,25.3125586 L17.8239071,30.582151 C16.6715674,31.1392515 15.3148953,31.1392515 14.1629461,30.5823397 L3.2501246,25.310732 C1.86125001,24.6346236 0.989308874,23.2561374 1,21.7627982 L1,9.22001994 C1.00092295,7.72021919 1.88034195,6.35009055 3.26752753,5.68413307 L14.179601,0.412898279 C15.3263457,-0.13763276 16.6737533,-0.13763276 17.820498,0.412898279 Z M3.727,9.718 L3.72729651,21.7719666 C3.72372199,22.2728025 4.01436904,22.7322979 4.47356063,22.9558408 L14.636,27.864 L14.636,14.988 L3.727,9.718 Z M28.272,9.718 L17.363,14.988 L17.363,27.858 L27.5159208,22.9543871 C27.9793222,22.7319167 28.2724619,22.2752071 28.2727365,21.7759726 L28.272,9.718 Z M15.3962519,2.7710697 L5.419,7.59 L16.0000495,12.7013647 L26.58,7.59 L16.6056138,2.77192309 C16.2236371,2.58901321 15.7750677,2.5892117 15.3962519,2.7710697 Z" id="path-11"></path>
        <path d="M17.820498,0.412898279 L28.7295528,5.68267934 C30.1197571,6.35009055 30.9991761,7.72021919 31,9.22071903 L31,21.7766717 C30.9991761,23.2764725 30.1197571,24.6466011 28.7325715,25.3125586 L17.8239071,30.582151 C16.6715674,31.1392515 15.3148953,31.1392515 14.1629461,30.5823397 L3.2501246,25.310732 C1.86125001,24.6346236 0.989308874,23.2561374 1,21.7627982 L1,9.22001994 C1.00092295,7.72021919 1.88034195,6.35009055 3.26752753,5.68413307 L14.179601,0.412898279 C15.3263457,-0.13763276 16.6737533,-0.13763276 17.820498,0.412898279 Z M3.727,9.718 L3.72729651,21.7719666 C3.72372199,22.2728025 4.01436904,22.7322979 4.47356063,22.9558408 L14.636,27.864 L14.636,14.988 L3.727,9.718 Z M28.272,9.718 L17.363,14.988 L17.363,27.858 L27.5159208,22.9543871 C27.9793222,22.7319167 28.2724619,22.2752071 28.2727365,21.7759726 L28.272,9.718 Z M15.3962519,2.7710697 L5.419,7.59 L16.0000495,12.7013647 L26.58,7.59 L16.6056138,2.77192309 C16.2236371,2.58901321 15.7750677,2.5892117 15.3962519,2.7710697 Z" id="path-13"></path>
        <rect id="path-15" x="53" y="11" width="8" height="26"></rect>
        <mask id="mask-16" maskContentUnits="userSpaceOnUse" maskUnits="objectBoundingBox" x="0" y="0" width="8" height="26" fill="white">
            <use xlink:href="#path-15"></use>
        </mask>
    </defs>
    <g id="salable-qty" stroke="none" stroke-width="1" fill="none" fill-rule="evenodd">
        <rect fill="#FFFFFF" x="0" y="0" width="686" height="156"></rect>
        <text id="Warehouse-Qty-+-Stor" font-family="EncodeSansCondensed-Regular, Encode Sans Condensed" font-size="12" font-style="condensed" font-weight="normal" fill="#000000">
            <tspan x="40.308" y="112">Warehouse Qty + Store Qty</tspan>
            <tspan x="166.692" y="112" font-size="16"></tspan>
            <tspan x="54.456" y="127" font-size="16">Source for Stock</tspan>
        </text>
        <text id="Notify-for-Qty-Below" font-family="EncodeSansCondensed-Regular, Encode Sans Condensed" font-size="12" font-style="condensed" font-weight="normal" fill="#000000">
            <tspan x="234.306" y="112">Notify for Qty Below</tspan>
            <tspan x="329.694" y="112" font-size="16"></tspan>
            <tspan x="248.68" y="127" font-size="16">Thresholds</tspan>
        </text>
        <text id="UnShipped-Orders-Res" font-family="EncodeSansCondensed-Regular, Encode Sans Condensed" font-size="12" font-style="condensed" font-weight="normal" fill="#000000">
            <tspan x="397.148" y="110">UnShipped Orders</tspan>
            <tspan x="479.852" y="110" font-size="16"></tspan>
            <tspan x="399.08" y="125" font-size="16">Reservations</tspan>
        </text>
        <g id="Group" transform="translate(354.000000, 55.000000)">
            <mask id="mask-2" fill="white">
                <use xlink:href="#path-1"></use>
            </mask>
            <use id="Combined-Shape" fill="#000000" fill-rule="nonzero" xlink:href="#path-1"></use>
        </g>
        <g id="minus-circle" transform="translate(506.000000, 56.000000)">
            <mask id="mask-4" fill="white">
                <use xlink:href="#path-3"></use>
            </mask>
            <use id="Combined-Shape" fill="#000000" fill-rule="nonzero" xlink:href="#path-3"></use>
        </g>
        <g id="Group" transform="translate(183.000000, 55.000000)">
            <mask id="mask-6" fill="white">
                <use xlink:href="#path-5"></use>
            </mask>
            <use id="Combined-Shape" fill="#000000" fill-rule="nonzero" xlink:href="#path-5"></use>
        </g>
        <g id="Group-2" transform="translate(548.000000, 24.000000)">
            <g id="package" transform="translate(17.000000, 35.000000)">
                <mask id="mask-8" fill="white">
                    <use xlink:href="#path-7"></use>
                </mask>
                <use id="Combined-Shape" fill="#000000" fill-rule="nonzero" xlink:href="#path-7"></use>
                <g id="Group" mask="url(#mask-8)">
                    <g transform="translate(-1.000000, 0.000000)" id="COLOR/-black">
                        <rect id="Rectangle" fill="#000000" x="0" y="0" width="33" height="32"></rect>
                    </g>
                </g>
            </g>
            <line x1="32" y1="30.40625" x2="32" y2="42.59375" id="Line-3" stroke="#006FE8" stroke-width="3" stroke-linecap="round"></line>
            <g id="package" transform="translate(17.000000, 0.000000)">
                <mask id="mask-10" fill="white">
                    <use xlink:href="#path-9"></use>
                </mask>
                <use id="Combined-Shape" fill="#000000" fill-rule="nonzero" xlink:href="#path-9"></use>
                <g id="Group" mask="url(#mask-10)">
                    <g transform="translate(-1.000000, 0.000000)" id="COLOR/-black">
                        <rect id="Rectangle" fill="#000000" x="0" y="0" width="33" height="32"></rect>
                    </g>
                </g>
            </g>
            <g id="package" transform="translate(53.000000, 35.000000)">
                <mask id="mask-12" fill="white">
                    <use xlink:href="#path-11"></use>
                </mask>
                <use id="Combined-Shape" fill="#000000" fill-rule="nonzero" xlink:href="#path-11"></use>
                <g id="Group" mask="url(#mask-12)">
                    <g transform="translate(-1.000000, 0.000000)" id="COLOR/-black">
                        <rect id="Rectangle" fill="#000000" x="0" y="0" width="33" height="32"></rect>
                    </g>
                </g>
            </g>
            <line x1="69" y1="30.40625" x2="69" y2="42.59375" id="Line-3" stroke="#E80000" stroke-width="3" stroke-linecap="round"></line>
            <line x1="60.5769231" y1="53.5" x2="39.4230769" y2="53.5" id="Line-3" stroke="#006FE8" stroke-width="3" stroke-linecap="round"></line>
            <g id="package" transform="translate(53.000000, 0.000000)">
                <mask id="mask-14" fill="white">
                    <use xlink:href="#path-13"></use>
                </mask>
                <use id="Combined-Shape" fill="#000000" fill-rule="nonzero" xlink:href="#path-13"></use>
                <g id="Group" mask="url(#mask-14)">
                    <g transform="translate(-1.000000, 0.000000)" id="COLOR/-black">
                        <rect id="Rectangle" fill="#000000" x="0" y="0" width="33" height="32"></rect>
                    </g>
                </g>
            </g>
            <line x1="39.4230769" y1="18.5" x2="60.5769231" y2="18.5" id="Line-3" stroke="#E80000" stroke-width="3" stroke-linecap="round"></line>
            <text id="Salable-Quantity" font-family="EncodeSansCondensed-Regular, Encode Sans Condensed" font-size="16" font-style="condensed" font-weight="normal" fill="#000000">
                <tspan x="0.224" y="105">Salable Quantity</tspan>
            </text>
        </g>
        <g id="iocon" transform="translate(75.000000, 43.000000)" stroke="#030303" stroke-linecap="round" stroke-width="2.5">
            <g id="icon">
                <path d="M36,44 L28,44 L28,34.3485292 C28,33.603111 28.1250547,33 28.2788335,33 L35.7208162,33 C35.8752956,33 36,33.603111 36,34.3485292 L36,44 Z" id="Stroke-1" transform="translate(32.000000, 38.500000) scale(1, -1) translate(-32.000000, -38.500000) "></path>
                <path d="M49,7 L15,7 L15,0.858154936 C15,0.383797936 15.5314826,0 16.1850425,0 L47.8134688,0 C48.4700061,0 49,0.383797936 49,0.858154936 L49,7 Z" id="Stroke-1"></path>
                <polyline id="Stroke-3" points="49.1465802 7 57 13.976719 57 15 37 15"></polyline>
                <path d="M56.8841606,15 L56.9994917,22.210779 C57.0347317,24.2942029 55.2332176,26 53.0002798,26 C50.7908353,26 49,24.3290761 49,22.2665761 L49,15.9415761" id="Stroke-5"></path>
                <path d="M48,15 L47.9543464,21.8560674 C47.9872595,24.134522 46.197213,26 43.9771732,26 C41.7815528,26 40,24.1726597 40,21.9181773 L40,15" id="Stroke-7"></path>
                <path d="M38,15 L37.9543464,21.8560674 C37.9872595,24.134522 36.197213,26 33.9771732,26 C31.7815528,26 30,24.1726597 30,21.9181773 L30,15" id="Stroke-7"></path>
                <path d="M29,15 L28.9545935,21.8560674 C28.9873284,24.134522 27.2080253,26 25,26" id="Stroke-9"></path>
                <line x1="14" y1="8" x2="12" y2="10" id="Stroke-11"></line>
                <line x1="40" y1="15" x2="24" y2="15" id="Stroke-11"></line>
                <polyline id="Stroke-13" points="53 26 53 45 16 45"></polyline>
                <path d="M24,24.1784279 C24,30.9048916 12.0005399,45 12.0005399,45 C12.0005399,45 0,30.9048916 0,24.1784279 C0,17.4530601 5.37292482,12 12.0005399,12 C18.6270752,12 24,17.4530601 24,24.1784279 Z" id="Stroke-17"></path>
                <path d="M16,23.9994349 C16,26.2087866 14.2096637,28 12,28 C9.79033625,28 8,26.2087866 8,23.9994349 C8,21.7912134 9.79033625,20 12,20 C14.2096637,20 16,21.7912134 16,23.9994349 Z" id="Stroke-19"></path>
            </g>
        </g>
        <g id="Group" transform="translate(252.000000, 46.000000)">
            <rect id="Rectangle" stroke="#000000" stroke-width="2" fill="#FFFFFF" x="1" y="1" width="65" height="40" rx="2"></rect>
            <line x1="2" y1="6.5" x2="64.5" y2="6.5" id="Line-5" stroke="#4A90E2" stroke-linecap="round" stroke-dasharray="0,3"></line>
            <line x1="13.5" y1="6.5" x2="13.5" y2="42" id="Line-6" stroke="#4A90E2" stroke-linecap="round" stroke-dasharray="0,3"></line>
            <line x1="18.5" y1="11.5" x2="30" y2="11.5" id="Line-7" stroke="#979797" stroke-linecap="square"></line>
            <line x1="18.5" y1="16.5" x2="47.5" y2="16.5" id="Line-7" stroke="#979797" stroke-linecap="square"></line>
            <line x1="18.5" y1="19.5" x2="47.5" y2="19.5" id="Line-7" stroke="#979797" stroke-linecap="square"></line>
            <line x1="18.5" y1="22.5" x2="47.5" y2="22.5" id="Line-7" stroke="#979797" stroke-linecap="square"></line>
            <line x1="18.5" y1="28.5" x2="47.5" y2="28.5" id="Line-7" stroke="#979797" stroke-linecap="square" stroke-dasharray="6"></line>
            <line x1="18.5" y1="31.5" x2="47.5" y2="31.5" id="Line-7" stroke="#979797" stroke-linecap="square" stroke-dasharray="6"></line>
            <line x1="18.5" y1="34.5" x2="47.5" y2="34.5" id="Line-7" stroke="#979797" stroke-linecap="square" stroke-dasharray="6"></line>
            <use id="Rectangle" stroke="#4A90E2" mask="url(#mask-16)" stroke-width="2" fill="#FFFFFF" stroke-linecap="round" stroke-dasharray="0,3" xlink:href="#path-15"></use>
        </g>
        <g id="icon" transform="translate(407.000000, 25.000000)" stroke="#000000" stroke-width="2">
            <g>
                <line x1="19.1454968" y1="39.6889751" x2="25.5368012" y2="39.6889751" id="Stroke-1" stroke-linecap="round"></line>
                <line x1="19.1454968" y1="43.341149" x2="25.5368012" y2="43.341149" id="Stroke-2" stroke-linecap="round"></line>
                <path d="M14.3112577,45.6237577 L7.54631206,45.6237577 C7.39685554,45.6237577 7.27593163,45.517969 7.27593163,45.3884075 L7.27593163,39.4678036 C7.27593163,39.3382421 7.39685554,39.2324534 7.54631206,39.2324534 L14.3112577,39.2324534 C14.4607142,39.2324534 14.5802795,39.3382421 14.5802795,39.4678036 L14.5802795,45.3884075 C14.5802795,45.517969 14.4607142,45.6237577 14.3112577,45.6237577 Z" id="Stroke-3" stroke-linecap="round"></path>
                <line x1="19.1454968" y1="29.1889751" x2="26.4498447" y2="29.1889751" id="Stroke-5" stroke-linecap="round"></line>
                <line x1="19.1454968" y1="32.841149" x2="25.5368012" y2="32.841149" id="Stroke-7" stroke-linecap="round"></line>
                <path d="M14.3112577,34.667236 L7.54631206,34.667236 C7.39685554,34.667236 7.27593163,34.5614276 7.27593163,34.431842 L7.27593163,28.5113256 C7.27593163,28.3817401 7.39685554,28.2759316 7.54631206,28.2759316 L14.3112577,28.2759316 C14.4607142,28.2759316 14.5802795,28.3817401 14.5802795,28.5113256 L14.5802795,34.431842 C14.5802795,34.5614276 14.4607142,34.667236 14.3112577,34.667236 Z" id="Stroke-9" stroke-linecap="round"></path>
                <line x1="19.1454968" y1="18.6889751" x2="31.0150621" y2="18.6889751" id="Stroke-11" stroke-linecap="round"></line>
                <line x1="19.1454968" y1="22.341149" x2="27.3628881" y2="22.341149" id="Stroke-13" stroke-linecap="round"></line>
                <path d="M14.5802795,21.8846273 L14.5802795,24.3883637 C14.5802795,24.5179493 14.4607142,24.6237577 14.3112577,24.6237577 L7.54495337,24.6237577 C7.39685554,24.6237577 7.27593163,24.5179493 7.27593163,24.3883637 L7.27593163,18.4678474 C7.27593163,18.3382618 7.39685554,18.2324534 7.54495337,18.2324534 L11.917236,18.2324534" id="Stroke-15" stroke-linecap="round"></path>
                <path d="M25.4144093,50.9995833 L2.92734788,51.1020186 C1.8001186,51.1020186 0.88462728,50.2017932 0.88462728,49.0918768 L0.88462728,11.9247406 C0.88462728,11.6065887 1.01313876,11.3004879 1.24201159,11.0751303 L6.16583721,6.22692859 L11.0333626,1.43536757 C11.298953,1.17385632 11.6575612,1.02683156 12.0320804,1.02683156 L34.4506023,0.88462728 C35.5790555,0.88462728 36.4933229,1.78364753 36.4933229,2.89476908 L36.4933229,24.290487" id="Stroke-17" stroke-linejoin="round"></path>
                <path d="M11.841149,0.88462728 L11.841149,10.1856097 C11.841149,11.0997112 11.0997112,11.841149 10.1856097,11.841149 L0.88462728,11.841149" id="Stroke-19" stroke-linejoin="round"></path>
                <polyline id="Stroke-21" stroke-linecap="round" points="10.0150621 20.0579695 11.4193221 21.8846273 14.5802795 17.3194099"></polyline>
                <polygon id="Stroke-24" stroke-linecap="round" stroke-linejoin="round" points="25.5368012 62.9715838 62.9715838 62.9715838 62.9715838 30.1020186 25.5368012 30.1020186"></polygon>
                <polygon id="Stroke-26" stroke-linecap="round" stroke-linejoin="round" points="62.9715838 30.1020186 25.5368012 30.1020186 29.431637 24.6237577 58.9670687 24.6237577"></polygon>
                <path d="M51.2908976,44.7107142 L37.2150511,44.7107142 C36.3160485,44.7107142 35.5802795,44.0202876 35.5802795,43.1744007 L35.5802795,42.5937108 C35.5802795,41.7489669 36.3160485,41.0585403 37.2150511,41.0585403 L51.2908976,41.0585403 C52.1911183,41.0585403 52.9281055,41.7489669 52.9281055,42.5937108 L52.9281055,43.1744007 C52.9281055,44.0202876 52.1911183,44.7107142 51.2908976,44.7107142 Z" id="Stroke-27" stroke-linecap="round" stroke-linejoin="round"></path>
                <polyline id="Stroke-28" stroke-linecap="round" stroke-linejoin="round" points="40.4875756 24.6237577 39.2324534 30.6820518 39.2324534 36.9718503 41.743948 35.2385348 44.4654631 37.4063664 46.764437 35.4557928 49.2759316 37.1333098 49.2759316 30.6820518 47.7920371 24.6237577"></polyline>
            </g>
        </g>
    </g>
</svg>