<?xml version="1.0" encoding="UTF-8"?>
<svg width="498px" height="323px" viewBox="0 0 498 323" version="1.1" xmlns="http://www.w3.org/2000/svg" xmlns:xlink="http://www.w3.org/1999/xlink">
    <title>process</title>
    <defs>
        <rect id="path-1" x="0" y="0" width="268" height="88"></rect>
        <mask id="mask-2" maskContentUnits="userSpaceOnUse" maskUnits="objectBoundingBox" x="0" y="0" width="268" height="88" fill="white">
            <use xlink:href="#path-1"></use>
        </mask>
        <rect id="path-3" x="53" y="11" width="8" height="26"></rect>
        <mask id="mask-4" maskContentUnits="userSpaceOnUse" maskUnits="objectBoundingBox" x="0" y="0" width="8" height="26" fill="white">
            <use xlink:href="#path-3"></use>
        </mask>
        <polygon id="path-5" points="0.918938273 44.9666545 51.9903668 44.9666545 51.9903668 0.885021808 0.918938273 0.885021808"></polygon>
        <path d="M17.820498,0.412898279 L28.7295528,5.68267934 C30.1197571,6.35009055 30.9991761,7.72021919 31,9.22071903 L31,21.7766717 C30.9991761,23.2764725 30.1197571,24.6466011 28.7325715,25.3125586 L17.8239071,30.582151 C16.6715674,31.1392515 15.3148953,31.1392515 14.1629461,30.5823397 L3.2501246,25.310732 C1.86125001,24.6346236 0.989308874,23.2561374 1,21.7627982 L1,9.22001994 C1.00092295,7.72021919 1.88034195,6.35009055 3.26752753,5.68413307 L14.179601,0.412898279 C15.3263457,-0.13763276 16.6737533,-0.13763276 17.820498,0.412898279 Z M3.727,9.718 L3.72729651,21.7719666 C3.72372199,22.2728025 4.01436904,22.7322979 4.47356063,22.9558408 L14.636,27.864 L14.636,14.988 L3.727,9.718 Z M28.272,9.718 L17.363,14.988 L17.363,27.858 L27.5159208,22.9543871 C27.9793222,22.7319167 28.2724619,22.2752071 28.2727365,21.7759726 L28.272,9.718 Z M15.3962519,2.7710697 L5.419,7.59 L16.0000495,12.7013647 L26.58,7.59 L16.6056138,2.77192309 C16.2236371,2.58901321 15.7750677,2.5892117 15.3962519,2.7710697 Z" id="path-7"></path>
        <path d="M17.820498,0.412898279 L28.7295528,5.68267934 C30.1197571,6.35009055 30.9991761,7.72021919 31,9.22071903 L31,21.7766717 C30.9991761,23.2764725 30.1197571,24.6466011 28.7325715,25.3125586 L17.8239071,30.582151 C16.6715674,31.1392515 15.3148953,31.1392515 14.1629461,30.5823397 L3.2501246,25.310732 C1.86125001,24.6346236 0.989308874,23.2561374 1,21.7627982 L1,9.22001994 C1.00092295,7.72021919 1.88034195,6.35009055 3.26752753,5.68413307 L14.179601,0.412898279 C15.3263457,-0.13763276 16.6737533,-0.13763276 17.820498,0.412898279 Z M3.727,9.718 L3.72729651,21.7719666 C3.72372199,22.2728025 4.01436904,22.7322979 4.47356063,22.9558408 L14.636,27.864 L14.636,14.988 L3.727,9.718 Z M28.272,9.718 L17.363,14.988 L17.363,27.858 L27.5159208,22.9543871 C27.9793222,22.7319167 28.2724619,22.2752071 28.2727365,21.7759726 L28.272,9.718 Z M15.3962519,2.7710697 L5.419,7.59 L16.0000495,12.7013647 L26.58,7.59 L16.6056138,2.77192309 C16.2236371,2.58901321 15.7750677,2.5892117 15.3962519,2.7710697 Z" id="path-9"></path>
        <path d="M17.820498,0.412898279 L28.7295528,5.68267934 C30.1197571,6.35009055 30.9991761,7.72021919 31,9.22071903 L31,21.7766717 C30.9991761,23.2764725 30.1197571,24.6466011 28.7325715,25.3125586 L17.8239071,30.582151 C16.6715674,31.1392515 15.3148953,31.1392515 14.1629461,30.5823397 L3.2501246,25.310732 C1.86125001,24.6346236 0.989308874,23.2561374 1,21.7627982 L1,9.22001994 C1.00092295,7.72021919 1.88034195,6.35009055 3.26752753,5.68413307 L14.179601,0.412898279 C15.3263457,-0.13763276 16.6737533,-0.13763276 17.820498,0.412898279 Z M3.727,9.718 L3.72729651,21.7719666 C3.72372199,22.2728025 4.01436904,22.7322979 4.47356063,22.9558408 L14.636,27.864 L14.636,14.988 L3.727,9.718 Z M28.272,9.718 L17.363,14.988 L17.363,27.858 L27.5159208,22.9543871 C27.9793222,22.7319167 28.2724619,22.2752071 28.2727365,21.7759726 L28.272,9.718 Z M15.3962519,2.7710697 L5.419,7.59 L16.0000495,12.7013647 L26.58,7.59 L16.6056138,2.77192309 C16.2236371,2.58901321 15.7750677,2.5892117 15.3962519,2.7710697 Z" id="path-11"></path>
        <path d="M17.820498,0.412898279 L28.7295528,5.68267934 C30.1197571,6.35009055 30.9991761,7.72021919 31,9.22071903 L31,21.7766717 C30.9991761,23.2764725 30.1197571,24.6466011 28.7325715,25.3125586 L17.8239071,30.582151 C16.6715674,31.1392515 15.3148953,31.1392515 14.1629461,30.5823397 L3.2501246,25.310732 C1.86125001,24.6346236 0.989308874,23.2561374 1,21.7627982 L1,9.22001994 C1.00092295,7.72021919 1.88034195,6.35009055 3.26752753,5.68413307 L14.179601,0.412898279 C15.3263457,-0.13763276 16.6737533,-0.13763276 17.820498,0.412898279 Z M3.727,9.718 L3.72729651,21.7719666 C3.72372199,22.2728025 4.01436904,22.7322979 4.47356063,22.9558408 L14.636,27.864 L14.636,14.988 L3.727,9.718 Z M28.272,9.718 L17.363,14.988 L17.363,27.858 L27.5159208,22.9543871 C27.9793222,22.7319167 28.2724619,22.2752071 28.2727365,21.7759726 L28.272,9.718 Z M15.3962519,2.7710697 L5.419,7.59 L16.0000495,12.7013647 L26.58,7.59 L16.6056138,2.77192309 C16.2236371,2.58901321 15.7750677,2.5892117 15.3962519,2.7710697 Z" id="path-13"></path>
        <path d="M12,1 C18.0751322,1 23,5.92486775 23,12 C23,18.0751322 18.0751322,23 12,23 C5.92486775,23 1,18.0751322 1,12 C1,5.92486775 5.92486775,1 12,1 Z M12,3 C7.02943725,3 3,7.02943725 3,12 C3,16.9705627 7.02943725,21 12,21 C16.9705627,21 21,16.9705627 21,12 C21,7.02943725 16.9705627,3 12,3 Z M12,7 C12.5522847,7 13,7.44771525 13,8 L13,8 L13,11 L16,11 C16.5128358,11 16.9355072,11.3860402 16.9932723,11.8833789 L17,12 C17,12.5522847 16.5522847,13 16,13 L16,13 L13,13 L13,16 C13,16.5128358 12.6139598,16.9355072 12.1166211,16.9932723 L12,17 C11.4477153,17 11,16.5522847 11,16 L11,16 L11,13 L8,13 C7.48716416,13 7.06449284,12.6139598 7.00672773,12.1166211 L7,12 C7,11.4477153 7.44771525,11 8,11 L8,11 L11,11 L11,8 C11,7.48716416 11.3860402,7.06449284 11.8833789,7.00672773 Z" id="path-15"></path>
        <path d="M12,1 C18.0751322,1 23,5.92486775 23,12 C23,18.0751322 18.0751322,23 12,23 C5.92486775,23 1,18.0751322 1,12 C1,5.92486775 5.92486775,1 12,1 Z M12,3 C7.02943725,3 3,7.02943725 3,12 C3,16.9705627 7.02943725,21 12,21 C16.9705627,21 21,16.9705627 21,12 C21,7.02943725 16.9705627,3 12,3 Z M16,11 C16.5522847,11 17,11.4477153 17,12 C17,12.5522847 16.5522847,13 16,13 L16,13 L8,13 C7.44771525,13 7,12.5522847 7,12 C7,11.4477153 7.44771525,11 8,11 L8,11 Z" id="path-17"></path>
    </defs>
    <g id="process" stroke="none" stroke-width="1" fill="none" fill-rule="evenodd">
        <rect fill="#FFFFFF" x="0" y="0" width="498" height="323"></rect>
        <g id="Group-4" transform="translate(107.000000, 197.000000)">
            <use id="Rectangle" stroke="#979797" mask="url(#mask-2)" stroke-width="2" stroke-dasharray="2" xlink:href="#path-1"></use>
            <g id="Group" transform="translate(16.000000, 17.000000)">
                <rect id="Rectangle" stroke="#000000" stroke-width="2" fill="#FFFFFF" x="1" y="1" width="65" height="40" rx="2"></rect>
                <line x1="2" y1="6.5" x2="64.5" y2="6.5" id="Line-5" stroke="#4A90E2" stroke-linecap="round" stroke-dasharray="0,3"></line>
                <line x1="13.5" y1="6.5" x2="13.5" y2="42" id="Line-6" stroke="#4A90E2" stroke-linecap="round" stroke-dasharray="0,3"></line>
                <line x1="18.5" y1="11.5" x2="30" y2="11.5" id="Line-7" stroke="#979797" stroke-linecap="square"></line>
                <line x1="18.5" y1="16.5" x2="47.5" y2="16.5" id="Line-7" stroke="#979797" stroke-linecap="square"></line>
                <line x1="18.5" y1="19.5" x2="47.5" y2="19.5" id="Line-7" stroke="#979797" stroke-linecap="square"></line>
                <line x1="18.5" y1="22.5" x2="47.5" y2="22.5" id="Line-7" stroke="#979797" stroke-linecap="square"></line>
                <line x1="18.5" y1="28.5" x2="47.5" y2="28.5" id="Line-7" stroke="#979797" stroke-linecap="square" stroke-dasharray="6"></line>
                <line x1="18.5" y1="31.5" x2="47.5" y2="31.5" id="Line-7" stroke="#979797" stroke-linecap="square" stroke-dasharray="6"></line>
                <line x1="18.5" y1="34.5" x2="47.5" y2="34.5" id="Line-7" stroke="#979797" stroke-linecap="square" stroke-dasharray="6"></line>
                <use id="Rectangle" stroke="#4A90E2" mask="url(#mask-4)" stroke-width="2" fill="#FFFFFF" stroke-linecap="round" stroke-dasharray="0,3" xlink:href="#path-3"></use>
            </g>
            <text id="Stock" font-family="EncodeSansCondensed-Regular, Encode Sans Condensed" font-size="16" font-style="condensed" font-weight="normal" fill="#000000">
                <tspan x="123.392" y="110">Stock</tspan>
            </text>
            <text id="Sources" font-family="EncodeSansCondensed-Regular, Encode Sans Condensed" font-size="14" font-style="condensed" font-weight="normal" fill="#000000">
                <tspan x="124.0565" y="78">Sources</tspan>
            </text>
            <text id="Products" font-family="EncodeSansCondensed-Regular, Encode Sans Condensed" font-size="14" font-style="condensed" font-weight="normal" fill="#000000">
                <tspan x="203.3995" y="78">Products</tspan>
            </text>
            <text id="Sales-Channel" font-family="EncodeSansCondensed-Regular, Encode Sans Condensed" font-size="14" font-style="condensed" font-weight="normal" fill="#000000">
                <tspan x="13.2295" y="78">Sales Channel</tspan>
            </text>
            <g id="iocon" transform="translate(111.000000, 14.000000)" stroke="#030303" stroke-linecap="round" stroke-width="2.5">
                <g id="icon">
                    <path d="M36,44 L28,44 L28,34.3485292 C28,33.603111 28.1250547,33 28.2788335,33 L35.7208162,33 C35.8752956,33 36,33.603111 36,34.3485292 L36,44 Z" id="Stroke-1" transform="translate(32.000000, 38.500000) scale(1, -1) translate(-32.000000, -38.500000) "></path>
                    <path d="M49,7 L15,7 L15,0.858154936 C15,0.383797936 15.5314826,0 16.1850425,0 L47.8134688,0 C48.4700061,0 49,0.383797936 49,0.858154936 L49,7 Z" id="Stroke-1"></path>
                    <polyline id="Stroke-3" points="49.1465802 7 57 13.976719 57 15 37 15"></polyline>
                    <path d="M56.8841606,15 L56.9994917,22.210779 C57.0347317,24.2942029 55.2332176,26 53.0002798,26 C50.7908353,26 49,24.3290761 49,22.2665761 L49,15.9415761" id="Stroke-5"></path>
                    <path d="M48,15 L47.9543464,21.8560674 C47.9872595,24.134522 46.197213,26 43.9771732,26 C41.7815528,26 40,24.1726597 40,21.9181773 L40,15" id="Stroke-7"></path>
                    <path d="M38,15 L37.9543464,21.8560674 C37.9872595,24.134522 36.197213,26 33.9771732,26 C31.7815528,26 30,24.1726597 30,21.9181773 L30,15" id="Stroke-7"></path>
                    <path d="M29,15 L28.9545935,21.8560674 C28.9873284,24.134522 27.2080253,26 25,26" id="Stroke-9"></path>
                    <line x1="14" y1="8" x2="12" y2="10" id="Stroke-11"></line>
                    <line x1="40" y1="15" x2="24" y2="15" id="Stroke-11"></line>
                    <polyline id="Stroke-13" points="53 26 53 45 16 45"></polyline>
                    <path d="M24,24.1784279 C24,30.9048916 12.0005399,45 12.0005399,45 C12.0005399,45 0,30.9048916 0,24.1784279 C0,17.4530601 5.37292482,12 12.0005399,12 C18.6270752,12 24,17.4530601 24,24.1784279 Z" id="Stroke-17"></path>
                    <path d="M16,23.9994349 C16,26.2087866 14.2096637,28 12,28 C9.79033625,28 8,26.2087866 8,23.9994349 C8,21.7912134 9.79033625,20 12,20 C14.2096637,20 16,21.7912134 16,23.9994349 Z" id="Stroke-19"></path>
                </g>
            </g>
            <g id="icon" transform="translate(199.000000, 14.000000)">
                <line x1="34.3475097" y1="21.0891034" x2="34.3475097" y2="16.4972667" id="Stroke-1" stroke="#000000" stroke-width="2" stroke-linecap="round" stroke-linejoin="round"></line>
                <path d="M22.2760811,16.1465256 L36.4242979,16.1465256 C36.8161013,16.1465256 37.133224,15.8215613 37.133224,15.4200696 L37.133224,10.7951513 C37.133224,10.3936596 36.8161013,10.0686953 36.4242979,10.0686953 L22.2760811,10.0686953 L22.2760811,36.7013483 L23.8313892,36.7013483" id="Stroke-2" stroke="#000000" stroke-width="2" stroke-linecap="round" stroke-linejoin="round"></path>
                <path d="M16.7046526,16.1465256 L2.5564358,16.1465256 C2.16463237,16.1465256 1.8475097,15.8215613 1.8475097,15.4200696 L1.8475097,10.7951513 C1.8475097,10.3936596 2.16463237,10.0686953 2.5564358,10.0686953 L16.7046526,10.0686953 L16.7046526,36.7013483 L5.47223261,36.7013483 C5.08042918,36.7013483 4.76330651,36.3763841 4.76330651,35.9737833 L4.76330651,16.1465256" id="Stroke-4" stroke="#000000" stroke-width="2" stroke-linecap="round" stroke-linejoin="round"></path>
                <line x1="22.2760811" y1="10.527879" x2="16.7046526" y2="10.527879" id="Stroke-6" stroke="#000000" stroke-width="2" stroke-linecap="round" stroke-linejoin="round"></line>
                <line x1="22.2760811" y1="36.7013483" x2="16.7046526" y2="36.7013483" id="Stroke-8" stroke="#000000" stroke-width="2" stroke-linecap="round" stroke-linejoin="round"></line>
                <path d="M19.4903668,10.0686953 L22.1477864,3.6586621 C22.9530651,1.71794373 25.6433763,1.17433668 27.2471285,2.63013284 L27.8380442,3.16447387 C29.5189216,4.69028003 28.841807,7.32492104 26.5961004,7.98383868 L19.4903668,10.0686953 Z" id="Stroke-10" stroke="#000000" stroke-width="2" stroke-linecap="round" stroke-linejoin="round"></path>
                <path d="M19.4903668,10.0686953 L16.8327828,3.6586621 C16.0285885,1.71794373 13.3381107,1.17433668 11.733125,2.63013284 L11.143307,3.16447387 C9.46119123,4.69028003 10.139482,7.32492104 12.3841934,7.98383868 L19.4903668,10.0686953" id="Stroke-12" stroke="#000000" stroke-width="2" stroke-linecap="round" stroke-linejoin="round"></path>
                <path d="M51.9903668,43.1875106 C51.9903668,43.6636629 51.5744482,44.0482871 51.0620365,44.0482871 L31.5626634,44.0482871 C31.0491426,44.0482871 30.633224,43.6636629 30.633224,43.1875106 L30.633224,31.1335535 C30.633224,30.6574011 31.0491426,30.2727769 31.5626634,30.2727769 L51.0620365,30.2727769 C51.5744482,30.2727769 51.9903668,30.6574011 51.9903668,31.1335535 L51.9903668,43.1875106 Z" id="Stroke-15" stroke="#000000" stroke-width="2" stroke-linecap="round" stroke-linejoin="round"></path>
                <line x1="32.4903668" y1="38.0788994" x2="48.2760811" y2="38.0788994" id="Stroke-17" stroke="#000000" stroke-linecap="round" stroke-linejoin="round"></line>
                <line x1="32.4903668" y1="40.3748177" x2="48.2760811" y2="40.3748177" id="Stroke-19" stroke="#000000" stroke-linecap="round" stroke-linejoin="round"></line>
                <line x1="32.4903668" y1="42.6707361" x2="38.9903668" y2="42.6707361" id="Stroke-21" stroke="#000000" stroke-linecap="round" stroke-linejoin="round"></line>
                <mask id="mask-6" fill="white">
                    <use xlink:href="#path-5"></use>
                </mask>
                <g id="Clip-24"></g>
                <polygon id="Stroke-23" stroke="#000000" stroke-linecap="round" stroke-linejoin="round" mask="url(#mask-6)" points="32.4903668 35.782981 36.2046526 35.782981 36.2046526 32.1095116 32.4903668 32.1095116"></polygon>
                <path d="M29.1080927,38.538083 L26.9186972,38.538083 C26.4062854,38.538083 25.9903668,38.1010427 25.9903668,37.5626091 L25.9903668,23.9024775 C25.9903668,23.3628784 26.4062854,22.9258381 26.9186972,22.9258381 L46.4180703,22.9258381 C46.9315911,22.9258381 47.3475097,23.3628784 47.3475097,23.9024775 L47.3475097,28.126035" id="Stroke-25" stroke="#000000" stroke-width="2" stroke-linecap="round" stroke-linejoin="round" mask="url(#mask-6)"></path>
                <line x1="25.9903668" y1="26.1401238" x2="47.3475097" y2="26.1401238" id="Stroke-26" stroke="#000000" stroke-width="2" stroke-linecap="round" stroke-linejoin="round" mask="url(#mask-6)"></line>
                <line x1="25.9903668" y1="29.8135932" x2="28.7760811" y2="29.8135932" id="Stroke-27" stroke="#000000" stroke-linecap="round" stroke-linejoin="round" mask="url(#mask-6)"></line>
                <line x1="39.9189383" y1="27.9768585" x2="46.4189383" y2="27.9768585" id="Stroke-28" stroke="#000000" stroke-linecap="round" stroke-linejoin="round" mask="url(#mask-6)"></line>
            </g>
        </g>
        <text id="Order" font-family="EncodeSansCondensed-Regular, Encode Sans Condensed" font-size="14" font-style="condensed" font-weight="normal" fill="#000000">
            <tspan x="28.3765" y="101">Order</tspan>
        </text>
        <text id="Shipment" font-family="EncodeSansCondensed-Regular, Encode Sans Condensed" font-size="14" font-style="condensed" font-weight="normal" fill="#000000">
            <tspan x="422.083" y="101">Shipment</tspan>
        </text>
        <g id="Group-2" transform="translate(197.000000, 24.000000)">
            <g id="package" transform="translate(11.000000, 35.000000)">
                <mask id="mask-8" fill="white">
                    <use xlink:href="#path-7"></use>
                </mask>
                <use id="Combined-Shape" fill="#000000" fill-rule="nonzero" xlink:href="#path-7"></use>
                <g id="Group" mask="url(#mask-8)">
                    <g transform="translate(-1.000000, 0.000000)" id="COLOR/-black">
                        <rect id="Rectangle" fill="#000000" x="0" y="0" width="33" height="32"></rect>
                    </g>
                </g>
            </g>
            <line x1="26" y1="30.40625" x2="26" y2="42.59375" id="Line-3" stroke="#006FE8" stroke-width="3" stroke-linecap="round"></line>
            <g id="package" transform="translate(11.000000, 0.000000)">
                <mask id="mask-10" fill="white">
                    <use xlink:href="#path-9"></use>
                </mask>
                <use id="Combined-Shape" fill="#000000" fill-rule="nonzero" xlink:href="#path-9"></use>
                <g id="Group" mask="url(#mask-10)">
                    <g transform="translate(-1.000000, 0.000000)" id="COLOR/-black">
                        <rect id="Rectangle" fill="#000000" x="0" y="0" width="33" height="32"></rect>
                    </g>
                </g>
            </g>
            <g id="package" transform="translate(47.000000, 35.000000)">
                <mask id="mask-12" fill="white">
                    <use xlink:href="#path-11"></use>
                </mask>
                <use id="Combined-Shape" fill="#000000" fill-rule="nonzero" xlink:href="#path-11"></use>
                <g id="Group" mask="url(#mask-12)">
                    <g transform="translate(-1.000000, 0.000000)" id="COLOR/-black">
                        <rect id="Rectangle" fill="#000000" x="0" y="0" width="33" height="32"></rect>
                    </g>
                </g>
            </g>
            <line x1="63" y1="30.40625" x2="63" y2="42.59375" id="Line-3" stroke="#E80000" stroke-width="3" stroke-linecap="round"></line>
            <line x1="54.5769231" y1="53.5" x2="33.4230769" y2="53.5" id="Line-3" stroke="#006FE8" stroke-width="3" stroke-linecap="round"></line>
            <g id="package" transform="translate(47.000000, 0.000000)">
                <mask id="mask-14" fill="white">
                    <use xlink:href="#path-13"></use>
                </mask>
                <use id="Combined-Shape" fill="#000000" fill-rule="nonzero" xlink:href="#path-13"></use>
                <g id="Group" mask="url(#mask-14)">
                    <g transform="translate(-1.000000, 0.000000)" id="COLOR/-black">
                        <rect id="Rectangle" fill="#000000" x="0" y="0" width="33" height="32"></rect>
                    </g>
                </g>
            </g>
            <line x1="33.4230769" y1="18.5" x2="54.5769231" y2="18.5" id="Line-3" stroke="#E80000" stroke-width="3" stroke-linecap="round"></line>
            <text id="Salable-Quantity" font-family="EncodeSansCondensed-Regular, Encode Sans Condensed" font-size="14" font-style="condensed" font-weight="normal" fill="#000000">
                <tspan x="0.446" y="85">Salable Quantity</tspan>
            </text>
        </g>
        <g id="Group-3" transform="translate(207.000000, 131.000000)">
            <text id="Reservations" font-family="EncodeSansCondensed-Regular, Encode Sans Condensed" font-size="14" font-style="condensed" font-weight="normal" fill="#000000">
                <tspan x="0.0075" y="42">Reservations</tspan>
            </text>
            <g id="Group" transform="translate(8.000000, 0.000000)">
                <mask id="mask-16" fill="white">
                    <use xlink:href="#path-15"></use>
                </mask>
                <use id="Combined-Shape" fill="#000000" fill-rule="nonzero" xlink:href="#path-15"></use>
                <g mask="url(#mask-16)" fill="#000000" id="COLOR/-black">
                    <g>
                        <rect id="Rectangle" x="0" y="0" width="24" height="24"></rect>
                    </g>
                </g>
            </g>
            <g id="Group" transform="translate(36.000000, 0.000000)">
                <mask id="mask-18" fill="white">
                    <use xlink:href="#path-17"></use>
                </mask>
                <use id="Combined-Shape" fill="#000000" fill-rule="nonzero" xlink:href="#path-17"></use>
            </g>
        </g>
        <path id="Line-4" d="M231.245131,186.564212 C231.459067,186.684552 231.550283,186.938798 231.472829,187.162848 L231.435788,187.245131 L226.935788,195.245131 C226.760565,195.556638 226.334839,195.582597 226.117866,195.323007 L226.064212,195.245131 L221.564212,187.245131 C221.42883,187.004452 221.51419,186.699594 221.754869,186.564212 C221.968806,186.443873 222.233452,186.497947 222.384704,186.680485 L222.435788,186.754869 L226,193.091 L226,193 C226,192.723858 226.223858,192.5 226.5,192.5 C226.74546,192.5 226.949608,192.676875 226.991944,192.910124 L227,193 L227,193.091 L230.564212,186.754869 C230.699594,186.51419 231.004452,186.42883 231.245131,186.564212 Z M226.5,188.5 C226.74546,188.5 226.949608,188.676875 226.991944,188.910124 L227,189 L227,191 C227,191.276142 226.776142,191.5 226.5,191.5 C226.25454,191.5 226.050392,191.323125 226.008056,191.089876 L226,191 L226,189 C226,188.723858 226.223858,188.5 226.5,188.5 Z M226.5,184.5 C226.74546,184.5 226.949608,184.676875 226.991944,184.910124 L227,185 L227,188 C227,188.276142 226.776142,188.5 226.5,188.5 C226.25454,188.5 226.050392,188.323125 226.008056,188.089876 L226,188 L226,185 C226,184.723858 226.223858,184.5 226.5,184.5 Z M226.5,180.5 C226.74546,180.5 226.949608,180.676875 226.991944,180.910124 L227,181 L227,183 C227,183.276142 226.776142,183.5 226.5,183.5 C226.25454,183.5 226.050392,183.323125 226.008056,183.089876 L226,183 L226,181 C226,180.723858 226.223858,180.5 226.5,180.5 Z M226.5,176.5 C226.74546,176.5 226.949608,176.676875 226.991944,176.910124 L227,177 L227,179 C227,179.276142 226.776142,179.5 226.5,179.5 C226.25454,179.5 226.050392,179.323125 226.008056,179.089876 L226,179 L226,177 C226,176.723858 226.223858,176.5 226.5,176.5 Z" fill="#272727" fill-rule="nonzero"></path>
        <path id="Line-4" d="M255.5,127.5 C255.74546,127.5 255.949608,127.676875 255.991944,127.910124 L256,128 L256,130 C256,130.276142 255.776142,130.5 255.5,130.5 C255.25454,130.5 255.050392,130.323125 255.008056,130.089876 L255,130 L255,128 C255,127.723858 255.223858,127.5 255.5,127.5 Z M255.5,123.5 C255.74546,123.5 255.949608,123.676875 255.991944,123.910124 L256,124 L256,126 C256,126.276142 255.776142,126.5 255.5,126.5 C255.25454,126.5 255.050392,126.323125 255.008056,126.089876 L255,126 L255,124 C255,123.723858 255.223858,123.5 255.5,123.5 Z M255.5,118.5 C255.74546,118.5 255.949608,118.676875 255.991944,118.910124 L256,119 L256,122 C256,122.276142 255.776142,122.5 255.5,122.5 C255.25454,122.5 255.050392,122.323125 255.008056,122.089876 L255,122 L255,119 C255,118.723858 255.223858,118.5 255.5,118.5 Z M255.882134,111.676993 L255.935788,111.754869 L260.435788,119.754869 C260.57117,119.995548 260.48581,120.300406 260.245131,120.435788 C260.031194,120.556127 259.766548,120.502053 259.615296,120.319515 L259.564212,120.245131 L256,113.908 L256,114 C256,114.276142 255.776142,114.5 255.5,114.5 C255.25454,114.5 255.050392,114.323125 255.008056,114.089876 L255,114 L255,113.908 L251.435788,120.245131 C251.315448,120.459067 251.061202,120.550283 250.837152,120.472829 L250.754869,120.435788 C250.540933,120.315448 250.449717,120.061202 250.527171,119.837152 L250.564212,119.754869 L255.064212,111.754869 C255.239435,111.443362 255.665161,111.417403 255.882134,111.676993 Z M255.5,115.5 C255.74546,115.5 255.949608,115.676875 255.991944,115.910124 L256,116 L256,118 C256,118.276142 255.776142,118.5 255.5,118.5 C255.25454,118.5 255.050392,118.323125 255.008056,118.089876 L255,118 L255,116 C255,115.723858 255.223858,115.5 255.5,115.5 Z" fill="#272727" fill-rule="nonzero"></path>
        <g id="icon" transform="translate(414.000000, 13.000000)" stroke="#000000" stroke-width="2">
            <g>
                <line x1="20.3610839" y1="42.20891" x2="27.1581854" y2="42.20891" id="Stroke-1" stroke-linecap="round"></line>
                <line x1="20.3610839" y1="46.092968" x2="27.1581854" y2="46.092968" id="Stroke-2" stroke-linecap="round"></line>
                <path d="M15.219909,48.5205042 L8.02544299,48.5205042 C7.86649716,48.5205042 7.73789554,48.4079987 7.73789554,48.2702111 L7.73789554,41.9736959 C7.73789554,41.8359083 7.86649716,41.7234028 8.02544299,41.7234028 L15.219909,41.7234028 C15.3788548,41.7234028 15.5060115,41.8359083 15.5060115,41.9736959 L15.5060115,48.2702111 C15.5060115,48.4079987 15.3788548,48.5205042 15.219909,48.5205042 Z" id="Stroke-3" stroke-linecap="round"></path>
                <line x1="20.3610839" y1="31.0422434" x2="28.1291999" y2="31.0422434" id="Stroke-5" stroke-linecap="round"></line>
                <line x1="20.3610839" y1="34.9263013" x2="27.1581854" y2="34.9263013" id="Stroke-7" stroke-linecap="round"></line>
                <path d="M15.219909,36.8683303 L8.02544299,36.8683303 C7.86649716,36.8683303 7.73789554,36.7558039 7.73789554,36.6179906 L7.73789554,30.3215685 C7.73789554,30.1837553 7.86649716,30.0712289 8.02544299,30.0712289 L15.219909,30.0712289 C15.3788548,30.0712289 15.5060115,30.1837553 15.5060115,30.3215685 L15.5060115,36.6179906 C15.5060115,36.7558039 15.3788548,36.8683303 15.219909,36.8683303 Z" id="Stroke-9" stroke-linecap="round"></path>
                <line x1="20.3610839" y1="19.8755767" x2="32.9842724" y2="19.8755767" id="Stroke-11" stroke-linecap="round"></line>
                <line x1="20.3610839" y1="23.7596347" x2="29.1002144" y2="23.7596347" id="Stroke-13" stroke-linecap="round"></line>
                <path d="M15.5060115,23.2741274 L15.5060115,25.9368312 C15.5060115,26.0746445 15.3788548,26.1871709 15.219909,26.1871709 L8.02399802,26.1871709 C7.86649716,26.1871709 7.73789554,26.0746445 7.73789554,25.9368312 L7.73789554,19.6404091 C7.73789554,19.5025959 7.86649716,19.3900695 8.02399802,19.3900695 L12.6738859,19.3900695" id="Stroke-15" stroke-linecap="round"></path>
                <path d="M27.0280226,54.2376521 L3.11321123,54.3465912 C1.91441184,54.3465912 0.940794091,53.3892087 0.940794091,52.2088213 L0.940794091,12.681867 C0.940794091,12.3435149 1.07746503,12.0179792 1.32086947,11.7783132 L6.55731894,6.62228914 L11.7338935,1.52650202 C12.0163468,1.24838687 12.3977238,1.09202721 12.796022,1.09202721 L36.6379422,0.940794091 C37.8380432,0.940794091 38.8103593,1.89689499 38.8103593,3.07856394 L38.8103593,25.8327401" id="Stroke-17" stroke-linejoin="round"></path>
                <path d="M12.592968,0.940794091 L12.592968,10.8323151 C12.592968,11.8044547 11.8044547,12.592968 10.8323151,12.592968 L0.940794091,12.592968" id="Stroke-19" stroke-linejoin="round"></path>
                <polyline id="Stroke-21" stroke-linecap="round" points="10.650939 21.3314914 12.1443584 23.2741274 15.5060115 18.419055"></polyline>
                <polygon id="Stroke-24" stroke-linecap="round" stroke-linejoin="round" points="27.1581854 66.9697796 66.9697796 66.9697796 66.9697796 32.0132579 27.1581854 32.0132579"></polygon>
                <polygon id="Stroke-26" stroke-linecap="round" stroke-linejoin="round" points="66.9697796 32.0132579 27.1581854 32.0132579 31.3003123 26.1871709 62.7110095 26.1871709"></polygon>
                <path d="M54.5474625,47.5494897 L39.5779115,47.5494897 C38.6218294,47.5494897 37.8393448,46.8152265 37.8393448,45.9156325 L37.8393448,45.2980734 C37.8393448,44.399695 38.6218294,43.6654318 39.5779115,43.6654318 L54.5474625,43.6654318 C55.5048401,43.6654318 56.2886202,44.399695 56.2886202,45.2980734 L56.2886202,45.9156325 C56.2886202,46.8152265 55.5048401,47.5494897 54.5474625,47.5494897 Z" id="Stroke-27" stroke-linecap="round" stroke-linejoin="round"></path>
                <polyline id="Stroke-28" stroke-linecap="round" stroke-linejoin="round" points="43.0582153 26.1871709 41.7234028 32.6301186 41.7234028 39.3192694 44.3943574 37.475902 47.2886671 39.7813738 49.7336076 37.7069542 52.4045622 39.4909803 52.4045622 32.6301186 50.8264521 26.1871709"></polyline>
            </g>
        </g>
        <g id="Cart" transform="translate(16.000000, 32.000000)" fill="#000000">
            <path d="M19.9365499,30.7644628 L44.1167195,30.7644628 C45.5692678,30.7653558 46.8822474,29.8841034 47.4535829,28.5248099 L54.7076338,11.2967108 C55.1871774,10.1558052 55.0714899,8.8460025 54.3997117,7.81044765 C53.7279334,6.7748928 52.5899483,6.15214287 51.3707704,6.15289257 L11.4734905,6.15289257 C10.7760835,6.16204765 10.0960596,6.37567613 9.51489675,6.76818182 L7.09687979,1.10752066 C6.80928301,0.436786839 6.15953559,0.00233015613 5.44053817,0 L1.81351272,0 C0.811937302,0 0,0.82642315 0,1.84586777 C0,2.86531239 0.811937302,3.69173554 1.81351272,3.69173554 L4.23152969,3.69173554 L15.2697771,29.3616033 C16.6367494,33.5247423 16.132558,38.0894032 13.8915075,41.8396694 C13.8886121,44.3441749 15.377454,46.6005443 17.6562898,47.5452718 C19.9351256,48.4899992 22.5491494,47.9345376 24.2662802,46.1406956 C25.983411,44.3468536 26.460947,41.6726428 25.4738087,39.3785124 L38.5915507,39.3785124 C37.5250231,41.8663188 38.186127,44.7715618 40.2186328,46.5287786 C42.2511385,48.2859954 45.174812,48.4799962 47.414259,47.0062454 C49.6537061,45.5324946 50.6797971,42.7392055 49.9396326,40.1315159 C49.199468,37.5238262 46.8679317,35.7178729 44.2013501,35.6867769 L20.2267119,35.6867769 L20.2267119,35.6867769 L19.9849102,35.6867769 C18.6494763,35.6867769 17.5668932,34.5848793 17.5668932,33.2256199 C17.5668932,31.8663604 18.6494763,30.7644628 19.9849102,30.7644628 L19.9365499,30.7644628 Z M51.3707704,9.84462811 L44.1167195,27.0727273 L18.7275414,27.0727273 L11.4734905,9.84462811 L51.3707704,9.84462811 Z M22.3545668,41.8396694 C22.3545668,43.1989289 21.2719838,44.3008265 19.9365499,44.3008265 C18.601116,44.3008265 17.5185329,43.1989289 17.5185329,41.8396694 C17.5185329,40.48041 18.601116,39.3785124 19.9365499,39.3785124 C21.2719838,39.3785124 22.3545668,40.48041 22.3545668,41.8396694 Z M46.5347365,41.8396694 C46.5347365,43.1989289 45.4521534,44.3008265 44.1167195,44.3008265 C42.7812856,44.3008265 41.6987025,43.1989289 41.6987025,41.8396694 C41.6987025,40.48041 42.7812856,39.3785124 44.1167195,39.3785124 C45.4521534,39.3785124 46.5347365,40.48041 46.5347365,41.8396694 Z" id="Shape"></path>
        </g>
        <path id="Line-8" d="M184.931795,50.3189195 L185.799551,50.8159094 L197.746967,57.6585506 L199.289645,58.5420882 L197.733481,59.4016495 L185.681616,66.0586042 L184.806273,66.5421075 L183.839267,64.7914224 L184.714609,64.3079191 L193.424,59.496 L185.253711,59.4335197 L70.9922631,58.5494598 L69.992293,58.5417229 L70.0077669,56.5417827 L71.0077369,56.5495197 L185.269185,57.4335796 L193.439,57.496 L184.805571,52.5514221 L183.937815,52.0544322 L184.931795,50.3189195 Z" fill="#979797" fill-rule="nonzero"></path>
        <path id="Line-8" d="M393.931795,49.3189195 L394.799551,49.8159094 L406.746967,56.6585506 L408.289645,57.5420882 L406.733481,58.4016495 L394.681616,65.0586042 L393.806273,65.5421075 L392.839267,63.7914224 L393.714609,63.3079191 L402.424,58.496 L394.253711,58.4335197 L279.992263,57.5494598 L278.992293,57.5417229 L279.007767,55.5417827 L280.007737,55.5495197 L394.269185,56.4335796 L402.439,56.496 L393.805571,51.5514221 L392.937815,51.0544322 L393.931795,49.3189195 Z" fill="#979797" fill-rule="nonzero"></path>
    </g>
</svg>