<?xml version="1.0" encoding="UTF-8"?>
<svg width="686px" height="188px" viewBox="0 0 686 188" version="1.1" xmlns="http://www.w3.org/2000/svg" xmlns:xlink="http://www.w3.org/1999/xlink">
    <title>sources</title>
    <g id="sources" stroke="none" stroke-width="1" fill="none" fill-rule="evenodd">
        <rect fill="#FFFFFF" x="0" y="0" width="686" height="188"></rect>
        <rect id="Rectangle" stroke="#006FE8" x="526.5" y="80.5" width="123" height="77"></rect>
        <text id="Drop-Shipper-Quantit" font-family="EncodeSansCondensed-Medium, Encode Sans Condensed" font-size="14" font-style="condensed" font-weight="400" fill="#000000">
            <tspan x="552.926" y="102">Drop Shipper</tspan>
            <tspan x="624.074" y="102" font-family="EncodeSansCondensed-Regular, Encode Sans Condensed" font-size="12" font-weight="normal"></tspan>
            <tspan x="557.618" y="119" font-family="EncodeSansCondensed-Regular, Encode Sans Condensed" font-size="12" font-weight="normal">Quantity: 750</tspan>
            <tspan x="530.015" y="134" font-family="EncodeSansCondensed-Regular, Encode Sans Condensed" font-size="12" font-weight="normal">Notify for Qty Below: 100</tspan>
            <tspan x="539.714" y="149" font-family="EncodeSansCondensed-Regular, Encode Sans Condensed" font-size="12" font-weight="normal">Salable Quantity: 650</tspan>
        </text>
        <rect id="Rectangle" stroke="#006FE8" x="202.5" y="81.5" width="123" height="77"></rect>
        <text id="NY-Warehouse-Quantit" font-family="EncodeSansCondensed-Medium, Encode Sans Condensed" font-size="14" font-style="condensed" font-weight="400" fill="#000000">
            <tspan x="222.305" y="101">NY Warehouse</tspan>
            <tspan x="304.695" y="101" font-family="EncodeSansCondensed-Regular, Encode Sans Condensed" font-size="12" font-weight="normal"></tspan>
            <tspan x="235.087" y="118" font-family="EncodeSansCondensed-Regular, Encode Sans Condensed" font-size="12" font-weight="normal">Quantity: 50</tspan>
            <tspan x="208.27" y="133" font-family="EncodeSansCondensed-Regular, Encode Sans Condensed" font-size="12" font-weight="normal">Notify for Qty Below: 10</tspan>
            <tspan x="217.297" y="148" font-family="EncodeSansCondensed-Regular, Encode Sans Condensed" font-size="12" font-weight="normal">Salable Quantity: 40</tspan>
        </text>
        <rect id="Rectangle" stroke="#006FE8" x="46.5" y="81.5" width="123" height="77"></rect>
        <text id="NY-Storefront-Quanti" font-family="EncodeSansCondensed-Medium, Encode Sans Condensed" font-size="14" font-style="condensed" font-weight="400" fill="#000000">
            <tspan x="69.525" y="101">NY Storefront</tspan>
            <tspan x="145.475" y="101" font-family="EncodeSansCondensed-Regular, Encode Sans Condensed" font-size="12" font-weight="normal"></tspan>
            <tspan x="79.789" y="118" font-family="EncodeSansCondensed-Regular, Encode Sans Condensed" font-size="12" font-weight="normal">Quantity: 25</tspan>
            <tspan x="54.628" y="133" font-family="EncodeSansCondensed-Regular, Encode Sans Condensed" font-size="12" font-weight="normal">Notify for Qty Below: 5</tspan>
            <tspan x="61.87" y="148" font-family="EncodeSansCondensed-Regular, Encode Sans Condensed" font-size="12" font-weight="normal">Salable Quantity: 20</tspan>
        </text>
        <rect id="Rectangle" stroke="#006FE8" x="364.5" y="81.5" width="123" height="77"></rect>
        <text id="UK-Warehouse-Quantit" font-family="EncodeSansCondensed-Medium, Encode Sans Condensed" font-size="14" font-style="condensed" font-weight="400" fill="#000000">
            <tspan x="383.7735" y="101">UK Warehouse</tspan>
            <tspan x="466.2265" y="101" font-family="EncodeSansCondensed-Regular, Encode Sans Condensed" font-size="12" font-weight="normal"></tspan>
            <tspan x="396.149" y="118" font-family="EncodeSansCondensed-Regular, Encode Sans Condensed" font-size="12" font-weight="normal">Quantity: 40</tspan>
            <tspan x="372.128" y="133" font-family="EncodeSansCondensed-Regular, Encode Sans Condensed" font-size="12" font-weight="normal">Notify for Qty Below: 5</tspan>
            <tspan x="379.817" y="148" font-family="EncodeSansCondensed-Regular, Encode Sans Condensed" font-size="12" font-weight="normal">Salable Quantity: 35</tspan>
        </text>
        <g id="iocon" transform="translate(80.000000, 29.000000)" stroke="#030303" stroke-linecap="round" stroke-width="2.5">
            <g id="icon">
                <path d="M36,44 L28,44 L28,34.3485292 C28,33.603111 28.1250547,33 28.2788335,33 L35.7208162,33 C35.8752956,33 36,33.603111 36,34.3485292 L36,44 Z" id="Stroke-1" transform="translate(32.000000, 38.500000) scale(1, -1) translate(-32.000000, -38.500000) "></path>
                <path d="M49,7 L15,7 L15,0.858154936 C15,0.383797936 15.5314826,0 16.1850425,0 L47.8134688,0 C48.4700061,0 49,0.383797936 49,0.858154936 L49,7 Z" id="Stroke-1"></path>
                <polyline id="Stroke-3" points="49.1465802 7 57 13.976719 57 15 37 15"></polyline>
                <path d="M56.8841606,15 L56.9994917,22.210779 C57.0347317,24.2942029 55.2332176,26 53.0002798,26 C50.7908353,26 49,24.3290761 49,22.2665761 L49,15.9415761" id="Stroke-5"></path>
                <path d="M48,15 L47.9543464,21.8560674 C47.9872595,24.134522 46.197213,26 43.9771732,26 C41.7815528,26 40,24.1726597 40,21.9181773 L40,15" id="Stroke-7"></path>
                <path d="M38,15 L37.9543464,21.8560674 C37.9872595,24.134522 36.197213,26 33.9771732,26 C31.7815528,26 30,24.1726597 30,21.9181773 L30,15" id="Stroke-7"></path>
                <path d="M29,15 L28.9545935,21.8560674 C28.9873284,24.134522 27.2080253,26 25,26" id="Stroke-9"></path>
                <line x1="14" y1="8" x2="12" y2="10" id="Stroke-11"></line>
                <line x1="40" y1="15" x2="24" y2="15" id="Stroke-11"></line>
                <polyline id="Stroke-13" points="53 26 53 45 16 45"></polyline>
                <path d="M24,24.1784279 C24,30.9048916 12.0005399,45 12.0005399,45 C12.0005399,45 0,30.9048916 0,24.1784279 C0,17.4530601 5.37292482,12 12.0005399,12 C18.6270752,12 24,17.4530601 24,24.1784279 Z" id="Stroke-17"></path>
                <path d="M16,23.9994349 C16,26.2087866 14.2096637,28 12,28 C9.79033625,28 8,26.2087866 8,23.9994349 C8,21.7912134 9.79033625,20 12,20 C14.2096637,20 16,21.7912134 16,23.9994349 Z" id="Stroke-19"></path>
            </g>
        </g>
        <g id="icon" transform="translate(552.000000, 12.000000)" stroke="#000000" stroke-linecap="round" stroke-width="3">
            <g id="icon" transform="translate(7.153711, 7.153711)">
                <path d="M34.9334113,26.5794495 C34.9334113,31.1339185 31.2403851,34.8269447 26.6859161,34.8269447 C22.1314472,34.8269447 18.43955,31.1339185 18.43955,26.5794495 C18.43955,22.0249806 22.1314472,18.3319543 26.6859161,18.3319543 C31.2403851,18.3319543 34.9334113,22.0249806 34.9334113,26.5794495 Z" id="Stroke-1"></path>
                <path d="M52.9514505,6.50907678 C52.9514505,10.0000084 50.1209959,12.8293339 46.6300644,12.8293339 C43.1402618,12.8293339 40.3109363,10.0000084 40.3109363,6.50907678 C40.3109363,3.0181452 43.1402618,0.188819673 46.6300644,0.188819673 C50.1209959,0.188819673 52.9514505,3.0181452 52.9514505,6.50907678 Z" id="Stroke-3"></path>
                <path d="M10.1777162,6.48638347 C10.1777162,8.50845929 8.53837834,10.1477971 6.51630251,10.1477971 C4.49422668,10.1477971 2.85488883,8.50845929 2.85488883,6.48638347 C2.85488883,4.46430764 4.49422668,2.82496978 6.51630251,2.82496978 C8.53837834,2.82496978 10.1777162,4.46430764 10.1777162,6.48638347 Z" id="Stroke-5"></path>
                <path d="M8.98027698,26.5056116 C8.98027698,27.5985035 8.09399584,28.4847846 7.00110394,28.4847846 C5.90708302,28.4847846 5.02193089,27.5985035 5.02193089,26.5056116 C5.02193089,25.4127197 5.90708302,24.5264385 7.00110394,24.5264385 C8.09399584,24.5264385 8.98027698,25.4127197 8.98027698,26.5056116 Z" id="Stroke-7"></path>
                <path d="M26.5848688,8.95397081 C25.4919769,8.95397081 24.6056958,8.06768966 24.6056958,6.97479776 C24.6056958,5.88190586 25.4919769,4.99562472 26.5848688,4.99562472 C27.6777607,4.99562472 28.5640418,5.88190586 28.5640418,6.97479776 C28.5640418,8.06768966 27.6777607,8.95397081 26.5848688,8.95397081 Z" id="Stroke-9"></path>
                <line x1="8.9758738" y1="26.5044825" x2="15.6596755" y2="26.5044825" id="Stroke-11"></line>
                <line x1="18.8928517" y1="18.7617724" x2="9.4531108" y2="9.35703115" id="Stroke-13"></line>
                <line x1="26.5826108" y1="9.0526472" x2="26.5826108" y2="15.5795151" id="Stroke-15"></line>
                <path d="M42.9357962,46.4939045 C42.9357962,44.4718287 44.574005,42.8324908 46.5960808,42.8324908 C48.6181567,42.8324908 50.2574945,44.4718287 50.2574945,46.4939045 C50.2574945,48.5159803 48.6181567,50.1553182 46.5960808,50.1553182 C44.574005,50.1553182 42.9357962,48.5159803 42.9357962,46.4939045 Z" id="Stroke-17"></path>
                <path d="M44.3216689,26.427822 C44.3216689,25.3349301 45.2079501,24.448649 46.301971,24.448649 C47.3948629,24.448649 48.281144,25.3349301 48.281144,26.427822 C48.281144,27.5207139 47.3948629,28.4069951 46.301971,28.4069951 C45.2079501,28.4069951 44.3216689,27.5207139 44.3216689,26.427822 Z" id="Stroke-19"></path>
                <path d="M26.5275146,44.0263171 C27.6204065,44.0263171 28.5066876,44.9125983 28.5066876,46.0066192 C28.5066876,47.0995111 27.6204065,47.9857923 26.5275146,47.9857923 C25.4346227,47.9857923 24.5483415,47.0995111 24.5483415,46.0066192 C24.5483415,44.9125983 25.4346227,44.0263171 26.5275146,44.0263171 Z" id="Stroke-21"></path>
                <line x1="44.2202829" y1="26.4763699" x2="37.4540627" y2="26.4763699" id="Stroke-23"></line>
                <line x1="34.2200962" y1="34.21908" x2="43.6587081" y2="43.6226923" id="Stroke-25"></line>
                <line x1="26.5302242" y1="43.9591404" x2="26.5302242" y2="37.40066" id="Stroke-27"></line>
                <line x1="41.3480546" y1="10.8746606" x2="33.8253906" y2="18.3318414" id="Stroke-29"></line>
                <path d="M0.189045477,46.3747928 C0.189045477,42.8838612 3.01837101,40.0545357 6.50930258,40.0545357 C9.99910514,40.0545357 12.8295597,42.8838612 12.8295597,46.3747928 C12.8295597,49.8657244 9.99910514,52.6950499 6.50930258,52.6950499 C3.01837101,52.6950499 0.189045477,49.8657244 0.189045477,46.3747928 Z" id="Stroke-31"></path>
                <line x1="11.791764" y1="42.0086445" x2="19.314428" y2="34.5525927" id="Stroke-33"></line>
            </g>
        </g>
        <g id="icon" transform="translate(233.000000, 15.000000)" stroke="#000000" stroke-width="3">
            <g id="icon" transform="translate(3.091757, 5.150559)">
                <path d="M56.5771042,28.7123454 C56.5771042,36.6907158 42.1428753,53.4081196 42.1428753,53.4081196 C42.1428753,53.4081196 27.7086465,36.6907158 27.7086465,28.7123454 C27.7086465,20.7355369 34.1718971,14.2675588 42.1428753,14.2675588 C50.1138536,14.2675588 56.5771042,20.7355369 56.5771042,28.7123454 Z" id="Stroke-1" stroke-linecap="round"></path>
                <path d="M46.7398838,28.7123454 C46.7398838,31.2536157 44.6811957,33.3122476 42.1433436,33.3122476 C39.6039307,33.3122476 37.5452426,31.2536157 37.5452426,28.7123454 C37.5452426,26.172637 39.6039307,24.1124431 42.1433436,24.1124431 C44.6811957,24.1124431 46.7398838,26.172637 46.7398838,28.7123454 Z" id="Stroke-3" stroke-linecap="round"></path>
                <path d="M32.604391,5.0986806 L13.6594657,5.0986806 C13.573622,5.0986806 13.5033862,5.02839346 13.5033862,4.94248697 L13.5033862,0.187952997 C13.5033862,0.102046502 13.573622,0.0317593706 13.6594657,0.0317593706 L32.604391,0.0317593706 C32.6917955,0.0317593706 32.7620313,0.102046502 32.7620313,0.187952997 L32.7620313,4.94248697 C32.7620313,5.02839346 32.6917955,5.0986806 32.604391,5.0986806 Z" id="Stroke-5" stroke-linecap="round"></path>
                <path d="M15.6276277,19.7891597 L15.6276277,16.5106555 C15.6276277,16.424749 15.6963027,16.3560238 15.7837072,16.3560238 L20.5347661,16.3560238 C20.6206098,16.3560238 20.6892848,16.424749 20.6892848,16.5106555 L20.6892848,19.7891597" id="Stroke-7" stroke-linecap="square"></path>
                <path d="M15.6276277,29.583281 L15.6276277,26.3047768 C15.6276277,26.2188703 15.6963027,26.1485832 15.7837072,26.1485832 L20.5347661,26.1485832 C20.6206098,26.1485832 20.6892848,26.2188703 20.6892848,26.3047768 L20.6892848,29.583281" id="Stroke-9" stroke-linecap="square"></path>
                <path d="M20.5204068,52.7361746 L20.5204068,42.6273231 C20.5204068,42.5414166 20.5906425,42.4726914 20.6764862,42.4726914 L27.8093178,42.4726914 C27.8951615,42.4726914 27.9653972,42.5414166 27.9653972,42.6273231 L27.9653972,52.7361746" id="Stroke-11" stroke-linecap="square"></path>
                <path d="M36.5185519,52.7361746 L9.82428109,52.7361746 L9.82428109,5.25487422 C9.82428109,5.16896773 9.89451685,5.0986806 9.98192135,5.0986806 L36.3624724,5.0986806 C36.4498769,5.0986806 36.5185519,5.16896773 36.5185519,5.25487422 L36.5185519,10.4920465" id="Stroke-13" stroke-linecap="square"></path>
                <path d="M6.1821668,13.8427122 L3.19792744,13.8427122 C3.11208374,13.8427122 3.04184798,13.772425 3.04184798,13.6865185 L3.04184798,9.86289858 C3.04184798,9.77543015 3.11208374,9.70670495 3.19792744,9.70670495 L6.30546957,9.70670495" id="Stroke-15" stroke-linecap="square"></path>
                <path d="M6.30406486,52.7361746 L0.0374743741,52.7361746 L0.0374743741,13.9985934 C0.0374743741,13.9126869 0.107710133,13.8423998 0.193553838,13.8423998 L6.18232288,13.8423998" id="Stroke-17" stroke-linecap="square"></path>
            </g>
        </g>
        <g id="icon" transform="translate(395.000000, 15.000000)" stroke="#000000" stroke-width="3">
            <g id="icon" transform="translate(3.091757, 5.150559)">
                <path d="M56.5771042,28.7123454 C56.5771042,36.6907158 42.1428753,53.4081196 42.1428753,53.4081196 C42.1428753,53.4081196 27.7086465,36.6907158 27.7086465,28.7123454 C27.7086465,20.7355369 34.1718971,14.2675588 42.1428753,14.2675588 C50.1138536,14.2675588 56.5771042,20.7355369 56.5771042,28.7123454 Z" id="Stroke-1" stroke-linecap="round"></path>
                <path d="M46.7398838,28.7123454 C46.7398838,31.2536157 44.6811957,33.3122476 42.1433436,33.3122476 C39.6039307,33.3122476 37.5452426,31.2536157 37.5452426,28.7123454 C37.5452426,26.172637 39.6039307,24.1124431 42.1433436,24.1124431 C44.6811957,24.1124431 46.7398838,26.172637 46.7398838,28.7123454 Z" id="Stroke-3" stroke-linecap="round"></path>
                <path d="M32.604391,5.0986806 L13.6594657,5.0986806 C13.573622,5.0986806 13.5033862,5.02839346 13.5033862,4.94248697 L13.5033862,0.187952997 C13.5033862,0.102046502 13.573622,0.0317593706 13.6594657,0.0317593706 L32.604391,0.0317593706 C32.6917955,0.0317593706 32.7620313,0.102046502 32.7620313,0.187952997 L32.7620313,4.94248697 C32.7620313,5.02839346 32.6917955,5.0986806 32.604391,5.0986806 Z" id="Stroke-5" stroke-linecap="round"></path>
                <path d="M15.6276277,19.7891597 L15.6276277,16.5106555 C15.6276277,16.424749 15.6963027,16.3560238 15.7837072,16.3560238 L20.5347661,16.3560238 C20.6206098,16.3560238 20.6892848,16.424749 20.6892848,16.5106555 L20.6892848,19.7891597" id="Stroke-7" stroke-linecap="square"></path>
                <path d="M15.6276277,29.583281 L15.6276277,26.3047768 C15.6276277,26.2188703 15.6963027,26.1485832 15.7837072,26.1485832 L20.5347661,26.1485832 C20.6206098,26.1485832 20.6892848,26.2188703 20.6892848,26.3047768 L20.6892848,29.583281" id="Stroke-9" stroke-linecap="square"></path>
                <path d="M20.5204068,52.7361746 L20.5204068,42.6273231 C20.5204068,42.5414166 20.5906425,42.4726914 20.6764862,42.4726914 L27.8093178,42.4726914 C27.8951615,42.4726914 27.9653972,42.5414166 27.9653972,42.6273231 L27.9653972,52.7361746" id="Stroke-11" stroke-linecap="square"></path>
                <path d="M36.5185519,52.7361746 L9.82428109,52.7361746 L9.82428109,5.25487422 C9.82428109,5.16896773 9.89451685,5.0986806 9.98192135,5.0986806 L36.3624724,5.0986806 C36.4498769,5.0986806 36.5185519,5.16896773 36.5185519,5.25487422 L36.5185519,10.4920465" id="Stroke-13" stroke-linecap="square"></path>
                <path d="M6.1821668,13.8427122 L3.19792744,13.8427122 C3.11208374,13.8427122 3.04184798,13.772425 3.04184798,13.6865185 L3.04184798,9.86289858 C3.04184798,9.77543015 3.11208374,9.70670495 3.19792744,9.70670495 L6.30546957,9.70670495" id="Stroke-15" stroke-linecap="square"></path>
                <path d="M6.30406486,52.7361746 L0.0374743741,52.7361746 L0.0374743741,13.9985934 C0.0374743741,13.9126869 0.107710133,13.8423998 0.193553838,13.8423998 L6.18232288,13.8423998" id="Stroke-17" stroke-linecap="square"></path>
            </g>
        </g>
    </g>
</svg>