<?xml version="1.0" encoding="utf-8"?>
<!-- Generator: Adobe Illustrator 27.1.0, SVG Export Plug-In . SVG Version: 6.00 Build 0)  -->
<svg version="1.1" id="Layer_1" xmlns="http://www.w3.org/2000/svg" xmlns:xlink="http://www.w3.org/1999/xlink" x="0px" y="0px"
	 viewBox="0 0 1354.4 376.5" style="enable-background:new 0 0 1354.4 376.5;" xml:space="preserve">
<style type="text/css">
	.st0{fill:#FFFFFF;}
	.st1{fill:#3966A0;stroke:#000000;stroke-miterlimit:10;stroke-opacity:0;}
	.st2{opacity:0.93;fill:#FFFFFF;stroke:#000000;stroke-miterlimit:10;stroke-opacity:0;enable-background:new    ;}
	.st3{fill-opacity:0;}
	.st4{font-family:'Arial-BoldMT';}
	.st5{font-size:12px;}
	.st6{fill:none;}
	.st7{fill:none;stroke:#333333;stroke-width:2;stroke-miterlimit:10;}
	.st8{font-size:11px;}
	.st9{fill:#EA3829;}
	.st10{font-size:16px;}
	.st11{fill:none;stroke:#000000;stroke-width:2;stroke-miterlimit:10;}
	.st12{fill:#E2E2E2;}
	.st13{fill:#6FA8DC;}
</style>
<g>
	<rect class="st0" width="1354.4" height="376.5"/>
</g>
<g transform="matrix(1,0,0,1,1005.5,215.50000000000003)">
	<image style="overflow:visible;enable-background:new    ;" width="174" height="59" xlink:href="9BDD4712F9FAF3A7.png" >
	</image>
</g>
<g transform="translate(0.5,0.5) matrix(1,0,0,1,30,120)">
	<g>
		<g transform="translate(0,0) scale(0.49406269178749085,0.4918839153959666) translate(-0.0001780171,0)">
			<g>
				<g>
					<path class="st1" d="M62.2,72c0-13.6-7-23-19.1-26.5c7.4-4.2,12.3-12.1,12.3-21.1C55.4,10.9,44.5,0,31.1,0
						C17.7,0,6.8,10.9,6.8,24.3c0,9.1,5,17,12.4,21.2C7.2,49.1,0.1,58.6,0,72C0,72.5,0,73.7,1,75c3.2,4.2,13.3,6.3,30.1,6.3
						S58,79.2,61.2,75C62.2,73.7,62.2,72.5,62.2,72z"/>
				</g>
				<g>
					<path class="st2" d="M31.1,3C19.4,3,9.8,12.6,9.8,24.3c0,9.3,6,17.2,14.3,20.1c2.2,0.8,4.6,1.2,7,1.2c2.5,0,4.9-0.5,7.1-1.2
						c8.3-2.9,14.2-10.8,14.2-20.1C52.4,12.6,42.8,3,31.1,3z"/>
				</g>
				<g>
					<path class="st2" d="M3,72.1l0,0.3c0,0.2,0.1,0.5,0.6,1c1.4,1.5,6.8,4.9,27.5,4.9c21.5,0,26.5-3.6,27.7-5.1
						c0.3-0.4,0.4-0.7,0.4-0.7l-0.1-0.4c0-13.7-7.4-22.4-20.7-24.7c-2.3,0.7-4.8,1.2-7.4,1.2c-2.6,0-5-0.4-7.3-1.1
						C10.6,49.8,3,58.6,3,72.1z"/>
				</g>
			</g>
		</g>
	</g>
</g>
<g transform="matrix(1,0,0,1,28,162)">
	<g transform="translate(6,0) matrix(1,0,0,1,0,0) translate(-6,0)">
		<g>
			<rect x="0" class="st3" width="33" height="14"/>
		</g>
	</g>
	<g transform="translate(6,0) matrix(1,0,0,1,0,0) translate(-6,0)">
		<g>
			<rect x="0" class="st3" width="33" height="14"/>
		</g>
	</g>
	<g transform="translate(6,0) matrix(1,0,0,1,0,0) translate(-6,0)">
		<g>
			<rect x="3" class="st3" width="27" height="14"/>
		</g>
	</g>
	<g transform="translate(6,0) matrix(1,0,0,1,0,0) translate(-6,0)">
		<g>
			<rect x="3" class="st3" width="27" height="14"/>
		</g>
		<text transform="matrix(1 0 0 1 3 12)" class="st4 st5">User</text>
	</g>
	<g transform="translate(6,0) matrix(1,0,0,1,0,0) translate(-6,0)">
	</g>
</g>
<g transform="translate(0,0) matrix(1,0,0,1,320,232.5)">
	<g>
		<g transform="translate(0,0) scale(1.8,0.38)">
			<g>
				<path class="st0" d="M0,0h100l0,0v100l0,0H0l0,0V0L0,0z"/>
				<g transform="scale(0.5555555555555556,2.6315789473684212)">
					<path class="st6" d="M0,0h180l0,0v38l0,0H0l0,0V0L0,0z"/>
					<path class="st7" d="M0,0h180l0,0v38l0,0H0l0,0V0L0,0z"/>
				</g>
			</g>
		</g>
	</g>
</g>
<g transform="matrix(1,0,0,1,330,246)">
	<g transform="translate(90,0) matrix(1,0,0,1,0,0) translate(-90,0)">
		<g>
			<rect x="0" class="st3" width="161" height="12"/>
		</g>
	</g>
	<g transform="translate(90,0) matrix(1,0,0,1,0,0) translate(-90,0)">
		<g>
			<rect x="0" class="st3" width="161" height="12"/>
		</g>
	</g>
	<g transform="translate(90,0) matrix(1,0,0,1,0,0) translate(-90,0)">
		<g>
			<rect x="45" class="st3" width="71" height="14"/>
		</g>
	</g>
	<g transform="translate(90,0) matrix(1,0,0,1,0,0) translate(-90,0)">
		<g>
			<rect x="45" class="st3" width="71" height="12"/>
		</g>
		<text transform="matrix(1 0 0 1 45 11)" class="st4 st8">Address</text>
		<text transform="matrix(1 0 0 1 91 11)" class="st4 st8">Data</text>
	</g>
	<g transform="translate(90,0) matrix(1,0,0,1,0,0) translate(-90,0)">
	</g>
</g>
<g transform="translate(0,0) matrix(1,0,0,1,321,49.5)">
	<g>
		<g transform="translate(0,0) scale(1.8,0.38)">
			<g>
				<path class="st0" d="M0,0h100l0,0v100l0,0H0l0,0V0L0,0z"/>
				<g transform="scale(0.5555555555555556,2.6315789473684212)">
					<path class="st6" d="M0,0h180l0,0v38l0,0H0l0,0V0L0,0z"/>
					<path class="st7" d="M0,0h180l0,0v38l0,0H0l0,0V0L0,0z"/>
				</g>
			</g>
		</g>
	</g>
</g>
<g transform="matrix(1,0,0,1,331,63)">
	<g transform="translate(82,0) matrix(1,0,0,1,0,0) translate(-82,0)">
		<g>
			<rect x="0" class="st3" width="161" height="12"/>
		</g>
	</g>
	<g transform="translate(82,0) matrix(1,0,0,1,0,0) translate(-82,0)">
		<g>
			<rect x="0" class="st3" width="161" height="12"/>
		</g>
	</g>
	<g transform="translate(82,0) matrix(1,0,0,1,0,0) translate(-82,0)">
		<g>
			<rect x="41" class="st3" width="79" height="14"/>
		</g>
	</g>
	<g transform="translate(82,0) matrix(1,0,0,1,0,0) translate(-82,0)">
		<g>
			<rect x="41" class="st3" width="79" height="12"/>
		</g>
		<text transform="matrix(1 0 0 1 41 11)" class="st4 st8">Customer</text>
		<text transform="matrix(1 0 0 1 94 11)" class="st4 st8">Data</text>
	</g>
	<g transform="translate(82,0) matrix(1,0,0,1,0,0) translate(-82,0)">
	</g>
</g>
<g transform="translate(0,0) matrix(1,0,0,1,320,112.5)">
	<g>
		<g transform="translate(0,0) scale(1.8,0.38)">
			<g>
				<path class="st0" d="M0,0h100l0,0v100l0,0H0l0,0V0L0,0z"/>
				<g transform="scale(0.5555555555555556,2.6315789473684212)">
					<path class="st6" d="M0,0h180l0,0v38l0,0H0l0,0V0L0,0z"/>
					<path class="st7" d="M0,0h180l0,0v38l0,0H0l0,0V0L0,0z"/>
				</g>
			</g>
		</g>
	</g>
</g>
<g transform="matrix(1,0,0,1,330,126)">
	<g transform="translate(82,0) matrix(1,0,0,1,0,0) translate(-82,0)">
		<g>
			<rect x="0" class="st3" width="161" height="12"/>
		</g>
	</g>
	<g transform="translate(82,0) matrix(1,0,0,1,0,0) translate(-82,0)">
		<g>
			<rect x="0" class="st3" width="161" height="12"/>
		</g>
	</g>
	<g transform="translate(82,0) matrix(1,0,0,1,0,0) translate(-82,0)">
		<g>
			<rect x="41" class="st3" width="79" height="14"/>
		</g>
	</g>
	<g transform="translate(82,0) matrix(1,0,0,1,0,0) translate(-82,0)">
		<g>
			<rect x="41" class="st3" width="79" height="12"/>
		</g>
		<text transform="matrix(1 0 0 1 41 11)" class="st4 st8">Customer</text>
		<text transform="matrix(1 0 0 1 94 11)" class="st4 st8">Data</text>
	</g>
	<g transform="translate(82,0) matrix(1,0,0,1,0,0) translate(-82,0)">
	</g>
</g>
<g transform="translate(0,0) matrix(1,0,0,1,320,173.5)">
	<g>
		<g transform="translate(0,0) scale(1.8,0.38)">
			<g>
				<path class="st0" d="M0,0h100l0,0v100l0,0H0l0,0V0L0,0z"/>
				<g transform="scale(0.5555555555555556,2.6315789473684212)">
					<path class="st6" d="M0,0h180l0,0v38l0,0H0l0,0V0L0,0z"/>
					<path class="st7" d="M0,0h180l0,0v38l0,0H0l0,0V0L0,0z"/>
				</g>
			</g>
		</g>
	</g>
</g>
<g transform="matrix(1,0,0,1,330,187)">
	<g transform="translate(90,0) matrix(1,0,0,1,0,0) translate(-90,0)">
		<g>
			<rect x="0" class="st3" width="161" height="12"/>
		</g>
	</g>
	<g transform="translate(90,0) matrix(1,0,0,1,0,0) translate(-90,0)">
		<g>
			<rect x="0" class="st3" width="161" height="12"/>
		</g>
	</g>
	<g transform="translate(90,0) matrix(1,0,0,1,0,0) translate(-90,0)">
		<g>
			<rect x="45" class="st3" width="71" height="14"/>
		</g>
	</g>
	<g transform="translate(90,0) matrix(1,0,0,1,0,0) translate(-90,0)">
		<g>
			<rect x="45" class="st3" width="71" height="12"/>
		</g>
		<text transform="matrix(1 0 0 1 45 11)" class="st4 st8">Address</text>
		<text transform="matrix(1 0 0 1 91 11)" class="st4 st8">Data</text>
	</g>
	<g transform="translate(90,0) matrix(1,0,0,1,0,0) translate(-90,0)">
	</g>
</g>
<g transform="translate(0,0) matrix(1,0,0,1,120,232.5)">
	<g>
		<g transform="translate(0,0) scale(1.8,0.38)">
			<g>
				<path class="st0" d="M0,0h100l0,0v100l0,0H0l0,0V0L0,0z"/>
				<g transform="scale(0.5555555555555556,2.6315789473684212)">
					<path class="st6" d="M0,0h180l0,0v38l0,0H0l0,0V0L0,0z"/>
					<path class="st7" d="M0,0h180l0,0v38l0,0H0l0,0V0L0,0z"/>
				</g>
			</g>
		</g>
	</g>
</g>
<g transform="matrix(1,0,0,1,130,246)">
	<g transform="translate(82,0) matrix(1,0,0,1,0,0) translate(-82,0)">
		<g>
			<rect x="0" class="st3" width="161" height="12"/>
		</g>
	</g>
	<g transform="translate(82,0) matrix(1,0,0,1,0,0) translate(-82,0)">
		<g>
			<rect x="0" class="st3" width="161" height="12"/>
		</g>
	</g>
	<g transform="translate(82,0) matrix(1,0,0,1,0,0) translate(-82,0)">
		<g>
			<rect x="41" class="st3" width="79" height="14"/>
		</g>
	</g>
	<g transform="translate(82,0) matrix(1,0,0,1,0,0) translate(-82,0)">
		<g>
			<rect x="41" class="st3" width="79" height="12"/>
		</g>
		<text transform="matrix(1 0 0 1 41 11)" class="st4 st8">Customer</text>
		<text transform="matrix(1 0 0 1 94 11)" class="st4 st8">Data</text>
	</g>
	<g transform="translate(82,0) matrix(1,0,0,1,0,0) translate(-82,0)">
	</g>
</g>
<g transform="translate(0,0) matrix(1,0,0,1,520,232.5)">
	<g>
		<g transform="translate(0,0) scale(1.8,0.38)">
			<g>
				<path class="st0" d="M0,0h100l0,0v100l0,0H0l0,0V0L0,0z"/>
				<g transform="scale(0.5555555555555556,2.6315789473684212)">
					<path class="st6" d="M0,0h180l0,0v38l0,0H0l0,0V0L0,0z"/>
					<path class="st7" d="M0,0h180l0,0v38l0,0H0l0,0V0L0,0z"/>
				</g>
			</g>
		</g>
	</g>
</g>
<g transform="matrix(1,0,0,1,530,246)">
	<g transform="translate(34,0) matrix(1,0,0,1,0,0) translate(-34,0)">
		<g>
			<rect x="0" class="st3" width="161" height="12"/>
		</g>
	</g>
	<g transform="translate(34,0) matrix(1,0,0,1,0,0) translate(-34,0)">
		<g>
			<rect x="0" class="st3" width="161" height="12"/>
		</g>
	</g>
	<g transform="translate(34,0) matrix(1,0,0,1,0,0) translate(-34,0)">
		<g>
			<rect x="17" class="st3" width="127" height="14"/>
		</g>
	</g>
	<g transform="translate(34,0) matrix(1,0,0,1,0,0) translate(-34,0)">
		<g>
			<rect x="17" class="st3" width="127" height="12"/>
		</g>
		<text transform="matrix(1 0 0 1 17 11)" class="st4 st8">Customer</text>
		<text transform="matrix(1 0 0 1 70 11)" class="st4 st8">Payment</text>
		<text transform="matrix(1 0 0 1 117 11)" class="st4 st8">Data</text>
	</g>
	<g transform="translate(34,0) matrix(1,0,0,1,0,0) translate(-34,0)">
	</g>
</g>
<g transform="translate(0,0) matrix(1,0,0,1,730,0.5000000000000284)">
	<g>
		<g transform="translate(0,0) scale(2.8,3.5)">
			<g>
				<path class="st9" d="M0,0h100l0,0v100l0,0H0l0,0V0L0,0z"/>
				<g transform="scale(0.35714285714285715,0.2857142857142857)">
					<path class="st9" d="M0,0h280l0,0v350l0,0H0l0,0V0L0,0z"/>
					<path class="st9" d="M0,0h280l0,0v350l0,0H0l0,0V0L0,0z"/>
				</g>
			</g>
		</g>
	</g>
</g>
<g transform="matrix(1,0,0,1,739,9)">
	<g transform="translate(196,0) matrix(1,0,0,1,0,0) translate(-196,0)">
		<g>
			<rect x="-5.1" y="5.5" class="st3" width="262" height="18"/>
		</g>
	</g>
	<g transform="translate(196,0) matrix(1,0,0,1,0,0) translate(-196,0)">
		<g>
			<rect x="-5.1" y="5.5" class="st3" width="262" height="18"/>
		</g>
	</g>
	<g transform="translate(196,0) matrix(1,0,0,1,0,0) translate(-196,0)">
		<g>
			<rect x="92.9" y="5.5" class="st3" width="66" height="14"/>
		</g>
	</g>
	<g transform="translate(196,0) matrix(1,0,0,1,0,0) translate(-196,0)">
		<g>
			<rect x="92.9" y="5.5" class="st3" width="66" height="17"/>
		</g>
		<text transform="matrix(1 0 0 1 92.9375 19.5156)" class="st0 st4 st10">Commerce</text>
	</g>
	<g transform="translate(196,0) matrix(1,0,0,1,0,0) translate(-196,0)">
	</g>
</g>
<g transform="translate(0,0) matrix(1,0,0,1,760,232.5)">
	<g>
		<g transform="translate(0,0) scale(1.8,0.38)">
			<g>
				<path class="st0" d="M0,0h100l0,0v100l0,0H0l0,0V0L0,0z"/>
				<g transform="scale(0.5555555555555556,2.6315789473684212)">
					<path class="st6" d="M0,0h180l0,0v38l0,0H0l0,0V0L0,0z"/>
					<path class="st7" d="M0,0h180l0,0v38l0,0H0l0,0V0L0,0z"/>
				</g>
			</g>
		</g>
	</g>
</g>
<g transform="matrix(1,0,0,1,770,246)">
	<g transform="translate(110,0) matrix(1,0,0,1,0,0) translate(-110,0)">
		<g>
			<rect y="0" class="st3" width="161" height="12"/>
		</g>
	</g>
	<g transform="translate(110,0) matrix(1,0,0,1,0,0) translate(-110,0)">
		<g>
			<rect y="0" class="st3" width="161" height="12"/>
		</g>
	</g>
	<g transform="translate(110,0) matrix(1,0,0,1,0,0) translate(-110,0)">
		<g>
			<rect x="55" y="0" class="st3" width="51" height="14"/>
		</g>
	</g>
	<g transform="translate(110,0) matrix(1,0,0,1,0,0) translate(-110,0)">
		<g>
			<rect x="55" y="0" class="st3" width="51" height="12"/>
		</g>
		<text transform="matrix(1 0 0 1 55 11)" class="st4 st8">Checkout</text>
	</g>
	<g transform="translate(110,0) matrix(1,0,0,1,0,0) translate(-110,0)">
	</g>
</g>
<g transform="translate(0,0) matrix(1,0,0,1,761,49.5)">
	<g>
		<g transform="translate(0,0) scale(1.8,0.38)">
			<g>
				<path class="st0" d="M0,0h100l0,0v100l0,0H0l0,0V0L0,0z"/>
				<g transform="scale(0.5555555555555556,2.6315789473684212)">
					<path class="st6" d="M0,0h180l0,0v38l0,0H0l0,0V0L0,0z"/>
					<path class="st7" d="M0,0h180l0,0v38l0,0H0l0,0V0L0,0z"/>
				</g>
			</g>
		</g>
	</g>
</g>
<g transform="matrix(1,0,0,1,771,63)">
	<g transform="translate(42,0) matrix(1,0,0,1,0,0) translate(-42,0)">
		<g>
			<rect y="0" class="st3" width="161" height="12"/>
		</g>
	</g>
	<g transform="translate(42,0) matrix(1,0,0,1,0,0) translate(-42,0)">
		<g>
			<rect y="0" class="st3" width="161" height="12"/>
		</g>
	</g>
	<g transform="translate(42,0) matrix(1,0,0,1,0,0) translate(-42,0)">
		<g>
			<rect x="21" y="0" class="st3" width="119" height="14"/>
		</g>
	</g>
	<g transform="translate(42,0) matrix(1,0,0,1,0,0) translate(-42,0)">
		<g>
			<rect x="21" y="0" class="st3" width="119" height="12"/>
		</g>
		<text transform="matrix(1 0 0 1 21 11)" class="st4 st8">Customer</text>
		<text transform="matrix(1 0 0 1 74 11)" class="st4 st8">Registration</text>
	</g>
	<g transform="translate(42,0) matrix(1,0,0,1,0,0) translate(-42,0)">
	</g>
</g>
<g transform="translate(0,0) matrix(1,0,0,1,760,112.5)">
	<g>
		<g transform="translate(0,0) scale(1.8,0.38)">
			<g>
				<path class="st0" d="M0,0h100l0,0v100l0,0H0l0,0V0L0,0z"/>
				<g transform="scale(0.5555555555555556,2.6315789473684212)">
					<path class="st6" d="M0,0h180l0,0v38l0,0H0l0,0V0L0,0z"/>
					<path class="st7" d="M0,0h180l0,0v38l0,0H0l0,0V0L0,0z"/>
				</g>
			</g>
		</g>
	</g>
</g>
<g transform="matrix(1,0,0,1,770,126)">
	<g transform="translate(40,0) matrix(1,0,0,1,0,0) translate(-40,0)">
		<g>
			<rect y="0" class="st3" width="161" height="12"/>
		</g>
	</g>
	<g transform="translate(40,0) matrix(1,0,0,1,0,0) translate(-40,0)">
		<g>
			<rect y="0" class="st3" width="161" height="12"/>
		</g>
	</g>
	<g transform="translate(40,0) matrix(1,0,0,1,0,0) translate(-40,0)">
		<g>
			<rect x="20" y="0" class="st3" width="121" height="14"/>
		</g>
	</g>
	<g transform="translate(40,0) matrix(1,0,0,1,0,0) translate(-40,0)">
		<g>
			<rect x="20" y="0" class="st3" width="121" height="12"/>
		</g>
		<text transform="matrix(1 0 0 1 20 11)" class="st4 st8">Customer</text>
		<text transform="matrix(1 0 0 1 73 11)" class="st4 st8">Account</text>
		<text transform="matrix(1 0 0 1 118 11)" class="st4 st8">Info</text>
	</g>
	<g transform="translate(40,0) matrix(1,0,0,1,0,0) translate(-40,0)">
	</g>
</g>
<g transform="translate(0,0) matrix(1,0,0,1,760,173.5)">
	<g>
		<g transform="translate(0,0) scale(1.8,0.38)">
			<g>
				<path class="st0" d="M0,0h100l0,0v100l0,0H0l0,0V0L0,0z"/>
				<g transform="scale(0.5555555555555556,2.6315789473684212)">
					<path class="st6" d="M0,0h180l0,0v38l0,0H0l0,0V0L0,0z"/>
					<path class="st7" d="M0,0h180l0,0v38l0,0H0l0,0V0L0,0z"/>
				</g>
			</g>
		</g>
	</g>
</g>
<g transform="matrix(1,0,0,1,770,181)">
	<g transform="translate(146,36) matrix(1,0,0,1,0,0) translate(-146,-36)">
		<g>
			<rect y="0" class="st3" width="161" height="24"/>
		</g>
	</g>
	<g transform="translate(146,36) matrix(1,0,0,1,0,0) translate(-146,-36)">
		<g>
			<rect y="0" class="st3" width="161" height="12"/>
		</g>
	</g>
	<g transform="translate(146,36) matrix(1,0,0,1,0,0) translate(-146,-36)">
		<g>
			<rect x="31" y="0" class="st3" width="99" height="14"/>
		</g>
	</g>
	<g transform="translate(146,36) matrix(1,0,0,1,0,0) translate(-146,-36)">
		<g>
			<rect x="31" y="0" class="st3" width="99" height="12"/>
		</g>
		<text transform="matrix(1 0 0 1 31 11)" class="st4 st8">Customer</text>
		<text transform="matrix(1 0 0 1 84 11)" class="st4 st8">Account</text>
	</g>
	<g transform="translate(146,36) matrix(1,0,0,1,0,0) translate(-146,-36)">
		<g>
			<rect y="12" class="st3" width="161" height="12"/>
		</g>
	</g>
	<g transform="translate(146,36) matrix(1,0,0,1,0,0) translate(-146,-36)">
		<g>
			<rect x="42" y="12" class="st3" width="77" height="14"/>
		</g>
	</g>
	<g transform="translate(146,36) matrix(1,0,0,1,0,0) translate(-146,-36)">
		<g>
			<rect x="42" y="12" class="st3" width="77" height="12"/>
		</g>
		<text transform="matrix(1 0 0 1 42 23)" class="st4 st8">Address</text>
		<text transform="matrix(1 0 0 1 87 23)" class="st4 st8">Book</text>
	</g>
	<g transform="translate(146,36) matrix(1,0,0,1,0,0) translate(-146,-36)">
	</g>
</g>
<g transform="matrix(1,0,0,1,75.50000000000018,6.498299418274087)">
	<g transform="translate(0,0)">
		<g transform="translate(-80,-27) translate(4.499999999999815,20.501700581725913) matrix(1,0,0,1,0,0)">
			<g>
				<path class="st11" d="M80,11v341"/>
			</g>
		</g>
	</g>
</g>
<g transform="matrix(1,0,0,1,79.47415752707471,64)">
	<g transform="translate(0,0)">
		<g transform="translate(-316,-70) translate(236.5258424729253,6) matrix(1,0,0,1,0,0)">
			<g>
				<path class="st11" d="M321,68.5H84"/>
			</g>
		</g>
	</g>
</g>
<g transform="matrix(1,0,0,1,496.5,38.5)">
	<image style="overflow:visible;enable-background:new    ;" width="294" height="60" xlink:href="9BDD4712F9FAF3A5.png" >
	</image>
</g>
<g transform="matrix(1,0,0,1,75.49947916723181,126.99999999999991)">
	<g transform="translate(0,0)">
		<g transform="translate(-319,-132) translate(243.5005208327682,5.000000000000085) matrix(1,0,0,1,0,0)">
			<g>
				<path class="st11" d="M320,131.5H80"/>
			</g>
		</g>
	</g>
</g>
<g transform="matrix(1,0,0,1,495.5,101.5)">
	<image style="overflow:visible;enable-background:new    ;" width="294" height="60" xlink:href="9BDD4712F9FAF3AB.png" >
	</image>
</g>
<g transform="matrix(1,0,0,1,77.4574617846634,187.99999999999997)">
	<g transform="translate(0,0)">
		<g transform="translate(-320,-195) translate(242.5425382153366,7.000000000000028) matrix(1,0,0,1,0,0)">
			<g>
				<path class="st11" d="M320,192.5H82"/>
			</g>
		</g>
	</g>
</g>
<g transform="matrix(1,0,0,1,495.5,162.5)">
	<image style="overflow:visible;enable-background:new    ;" width="294" height="60" xlink:href="9BDD4712F9FAF3AD.png" >
	</image>
</g>
<g transform="matrix(1,0,0,1,73.42566102717714,247)">
	<g transform="translate(0,0)">
		<g transform="translate(-117,-250) translate(43.57433897282286,3) matrix(1,0,0,1,0,0)">
			<g>
				<path class="st11" d="M120,251.5H77.9"/>
			</g>
		</g>
	</g>
</g>
<g transform="matrix(1,0,0,1,295.5,247)">
	<g transform="translate(0,0)">
		
			<g transform="translate(-300.57142857142856,-251.71428571428572) translate(5.071428571428555,4.714285714285722) matrix(1,0,0,1,0,0)">
			<g>
				<path class="st11" d="M300,251.5h20"/>
			</g>
		</g>
	</g>
</g>
<g transform="matrix(1,0,0,1,495.5,247)">
	<g transform="translate(0,0)">
		
			<g transform="translate(-497.42857142857144,-251.42857142857142) translate(1.9285714285714448,4.428571428571416) matrix(1,0,0,1,0,0)">
			<g>
				<path class="st11" d="M500,251.5h20"/>
			</g>
		</g>
	</g>
</g>
<g transform="matrix(1,0,0,1,695.5,221.5)">
	<image style="overflow:visible;enable-background:new    ;" width="94" height="60" xlink:href="9BDD4712F9FAF3AF.png" >
	</image>
</g>
<g transform="translate(0,0) matrix(1,0,0,1,935,285.5)">
	<g>
		<g transform="translate(0,0) scale(0.45,0.45)">
			<g>
				<g transform="scale(2.2222222222222223,2.2222222222222223)">
					<path class="st12" d="M45,0v39.4c0,3.8-7.5,5.6-22.5,5.6S0,43.1,0,39.4V0c0-3.8,7.5-5.6,22.5-5.6S45-3.7,45,0
						s-7.5,5.6-22.5,5.6S0,3.8,0,0"/>
					<path class="st7" d="M45,0v39.4c0,3.8-7.5,5.6-22.5,5.6S0,43.1,0,39.4V0c0-3.8,7.5-5.6,22.5-5.6S45-3.7,45,0s-7.5,5.6-22.5,5.6
						S0,3.8,0,0"/>
				</g>
			</g>
		</g>
	</g>
</g>
<g transform="translate(0,0) matrix(1,0,0,1,1030,211.5)">
	<g>
		<g transform="translate(0,0) scale(0.8,0.57)">
			<g>
				<path class="st0" d="M0,0h100l0,0v100l0,0H0l0,0V0L0,0z"/>
				<g transform="scale(1.25,1.7543859649122808)">
					<path class="st6" d="M0,0h80l0,0v57l0,0H0l0,0V0L0,0z"/>
					<path class="st7" d="M0,0h80l0,0v57l0,0H0l0,0V0L0,0z"/>
				</g>
			</g>
		</g>
	</g>
</g>
<g transform="matrix(1,0,0,1,1040,222)">
	<g transform="translate(35,72) matrix(1,0,0,1,0,0) translate(-35,-72)">
		<g>
			<rect y="0" class="st3" width="61" height="36"/>
		</g>
	</g>
	<g transform="translate(35,72) matrix(1,0,0,1,0,0) translate(-35,-72)">
		<g>
			<rect y="0" class="st3" width="61" height="12"/>
		</g>
	</g>
	<g transform="translate(35,72) matrix(1,0,0,1,0,0) translate(-35,-72)">
		<g>
			<rect x="8" y="0" class="st3" width="45" height="12"/>
		</g>
		<text transform="matrix(1 0 0 1 8 11)" class="st4 st8">Payment</text>
	</g>
	<g transform="translate(35,72) matrix(1,0,0,1,0,0) translate(-35,-72)">
		<g>
			<rect y="12" class="st3" width="61" height="12"/>
		</g>
	</g>
	<g transform="translate(35,72) matrix(1,0,0,1,0,0) translate(-35,-72)">
		<g>
			<rect x="18" y="12" class="st3" width="25" height="12"/>
		</g>
		<text transform="matrix(1 0 0 1 18 23)" class="st4 st8">Auth</text>
	</g>
	<g transform="translate(35,72) matrix(1,0,0,1,0,0) translate(-35,-72)">
		<g>
			<rect y="24" class="st3" width="61" height="12"/>
		</g>
	</g>
	<g transform="translate(35,72) matrix(1,0,0,1,0,0) translate(-35,-72)">
		<g>
			<rect x="9" y="24" class="st3" width="43" height="12"/>
		</g>
		<text transform="matrix(1 0 0 1 9 35)" class="st4 st8">Request</text>
	</g>
</g>
<g transform="translate(0,0) matrix(1,0,0,1,1150,211.5)">
	<g>
		<g transform="translate(0,0) scale(1.8,0.57)">
			<g>
				<path class="st12" d="M0,0h100l0,0v100l0,0H0l0,0V0L0,0z"/>
				<g transform="scale(0.5555555555555556,1.7543859649122808)">
					<path class="st6" d="M0,0h180l0,0v57l0,0H0l0,0V0L0,0z"/>
					<path class="st7" d="M0,0h180l0,0v57l0,0H0l0,0V0L0,0z"/>
				</g>
			</g>
		</g>
	</g>
</g>
<g transform="matrix(1,0,0,1,1162,234)">
	<g transform="translate(0,0) matrix(1,0,0,1,0,0) translate(0,0)">
		<g>
			<rect x="0" y="0" class="st3" width="158" height="12"/>
		</g>
	</g>
	<g transform="translate(0,0) matrix(1,0,0,1,0,0) translate(0,0)">
		<g>
			<rect x="0" y="0" class="st3" width="158" height="12"/>
		</g>
	</g>
	<g transform="translate(0,0) matrix(1,0,0,1,0,0) translate(0,0)">
		<g>
			<rect x="0" y="0" class="st3" width="100" height="12"/>
		</g>
	</g>
	<g transform="translate(0,0) matrix(1,0,0,1,0,0) translate(0,0)">
		<g>
			<rect x="0" y="0" class="st3" width="100" height="12"/>
		</g>
		<text transform="matrix(1 0 0 1 0 11)" class="st4 st8">Payment</text>
		<text transform="matrix(1 0 0 1 46 11)" class="st4 st8">Gateways</text>
	</g>
</g>
<g transform="translate(0,0) matrix(1,0,0,1,1280,225.00000000000003)">
	<g>
		<g transform="translate(0,0) scale(0.3,0.3)">
			<g>
				<g transform="scale(3.3333333333333335,3.3333333333333335)">
					<path class="st13" d="M30,0v26.2c0,2.5-5,3.8-15,3.8S0,28.8,0,26.3V0c0-2.5,5-3.8,15-3.8S30-2.5,30,0s-5,3.8-15,3.8S0,2.5,0,0"
						/>
					<path class="st7" d="M30,0v26.2c0,2.5-5,3.8-15,3.8S0,28.8,0,26.3V0c0-2.5,5-3.8,15-3.8S30-2.5,30,0s-5,3.8-15,3.8S0,2.5,0,0"
						/>
				</g>
			</g>
		</g>
	</g>
</g>
</svg>
